<svg width="23" height="15" fill="none" xmlns="http://www.w3.org/2000/svg"><path d="M22.109 10.032a.997.997 0 00-1.216.722 2.999 2.999 0 01-5.9-.754V9h7a1 1 0 001-1 5 5 0 10-10 0v2a4.998 4.998 0 009.838 1.246.999.999 0 00-.722-1.214zM17.992 5c.794 0 1.555.314 2.118.872.313.32.552.706.699 1.128h-5.633a2.995 2.995 0 012.816-2zm-2-3h4a1 1 0 100-2h-4a1 1 0 100 2zM9.91 6.718A3.987 3.987 0 006.992 0h-5a1 1 0 00-1 1v13a1 1 0 001 1h5.5A4.491 4.491 0 009.91 6.718zM2.992 2h4a2 2 0 010 4h-4V2zm4.5 11h-4.5V8h4.5a2.5 2.5 0 010 5z" fill="#fff"/></svg>