<svg width="23" height="15" viewBox="0 0 23 15" fill="none" xmlns="http://www.w3.org/2000/svg">
<path d="M22.1089 10.0317C21.9816 9.99894 21.8491 9.99168 21.719 10.0103C21.5889 10.0289 21.4637 10.0731 21.3508 10.1403C21.2378 10.2074 21.1392 10.2962 21.0606 10.4016C20.9821 10.507 20.9251 10.6269 20.8931 10.7543C20.71 11.4607 20.2756 12.076 19.6714 12.4851C19.0671 12.8941 18.3344 13.0688 17.6106 12.9763C16.8868 12.8838 16.2215 12.5306 15.7395 11.9827C15.2575 11.4349 14.9918 10.7301 14.9922 10.0004V9.00043H21.9922C22.1235 9.00047 22.2536 8.97463 22.3749 8.92438C22.4963 8.87414 22.6065 8.80048 22.6994 8.70762C22.7922 8.61475 22.8659 8.5045 22.9161 8.38316C22.9664 8.26182 22.9922 8.13177 22.9922 8.00043C22.9922 7.34383 22.8629 6.69365 22.6116 6.08702C22.3603 5.48039 21.992 4.92919 21.5277 4.4649C21.0634 4.00061 20.5122 3.63231 19.9056 3.38104C19.299 3.12976 18.6488 3.00043 17.9922 3.00043C17.3356 3.00043 16.6854 3.12976 16.0788 3.38104C15.4721 3.63231 14.9209 4.00061 14.4567 4.4649C13.9924 4.92919 13.6241 5.48039 13.3728 6.08702C13.1215 6.69365 12.9922 7.34383 12.9922 8.00043V10.0004C12.9918 11.2176 13.4355 12.3931 14.2402 13.3064C15.0448 14.2196 16.155 14.8079 17.3626 14.9609C18.5701 15.1138 19.7919 14.8208 20.7988 14.137C21.8057 13.4531 22.5285 12.4254 22.8315 11.2465C22.8639 11.1193 22.8709 10.987 22.8521 10.857C22.8333 10.7271 22.7891 10.6022 22.722 10.4893C22.6549 10.3765 22.5662 10.278 22.461 10.1995C22.3558 10.121 22.2361 10.0639 22.1089 10.0317ZM17.9922 5.00043C18.7856 5.00073 19.5467 5.31413 20.1103 5.8725C20.4233 6.19254 20.6619 6.57766 20.809 7.00043H15.1765C15.3819 6.41718 15.7629 5.91181 16.267 5.55371C16.7712 5.19562 17.3738 5.00235 17.9922 5.00043ZM15.9922 2.00043H19.9922C20.2574 2.00043 20.5118 1.89508 20.6993 1.70754C20.8868 1.52001 20.9922 1.26565 20.9922 1.00043C20.9922 0.735219 20.8868 0.480864 20.6993 0.293328C20.5118 0.105792 20.2574 0.000434951 19.9922 0.000434951H15.9922C15.727 0.000434951 15.4726 0.105792 15.2851 0.293328C15.0975 0.480864 14.9922 0.735219 14.9922 1.00043C14.9922 1.26565 15.0975 1.52001 15.2851 1.70754C15.4726 1.89508 15.727 2.00043 15.9922 2.00043ZM9.91019 6.71759C10.4439 6.14993 10.7995 5.43832 10.9332 4.67072C11.0668 3.90312 10.9726 3.11318 10.6621 2.39855C10.3517 1.68393 9.83865 1.07593 9.18641 0.649727C8.53417 0.223523 7.77133 -0.00220908 6.99219 0.000434951H1.99219C1.86086 0.000399477 1.7308 0.0262407 1.60946 0.0764828C1.48812 0.126725 1.37787 0.200383 1.285 0.293249C1.19214 0.386114 1.11848 0.496368 1.06824 0.617709C1.01799 0.739051 0.992152 0.869103 0.992188 1.00043V14.0004C0.992153 14.1318 1.018 14.2618 1.06824 14.3832C1.11848 14.5045 1.19214 14.6148 1.285 14.7076C1.37787 14.8005 1.48812 14.8741 1.60946 14.9244C1.7308 14.9746 1.86086 15.0005 1.99219 15.0004H7.49219C8.46532 15.0022 9.41271 14.6879 10.1918 14.1048C10.9709 13.5217 11.5396 12.7014 11.8123 11.7672C12.085 10.8331 12.047 9.83566 11.704 8.92498C11.3609 8.01431 10.7314 7.23967 9.91019 6.71759ZM2.99219 2.00043H6.99219C7.52262 2.00043 8.03133 2.21115 8.4064 2.58622C8.78147 2.96129 8.99219 3.47 8.99219 4.00043C8.99219 4.53087 8.78147 5.03958 8.4064 5.41465C8.03133 5.78972 7.52262 6.00043 6.99219 6.00043H2.99219V2.00043ZM7.49219 13.0004H2.99219V8.00043H7.49219C8.15523 8.00043 8.79111 8.26383 9.25995 8.73267C9.7288 9.20151 9.99219 9.83739 9.99219 10.5004C9.99219 11.1635 9.7288 11.7994 9.25995 12.2682C8.79111 12.737 8.15523 13.0004 7.49219 13.0004Z" fill="white"/>
</svg>
