<svg width="50" height="50" viewBox="0 0 50 50" fill="none" xmlns="http://www.w3.org/2000/svg">
<path d="M25 4.1665C20.8796 4.1665 16.8516 5.38836 13.4256 7.67755C9.9996 9.96675 7.32933 13.2205 5.75251 17.0273C4.17568 20.8341 3.76311 25.0229 4.56697 29.0642C5.37083 33.1055 7.35501 36.8176 10.2686 39.7312C13.1822 42.6448 16.8943 44.629 20.9356 45.4329C24.9769 46.2367 29.1658 45.8242 32.9726 44.2473C36.7794 42.6705 40.0331 40.0002 42.3223 36.5742C44.6115 33.1482 45.8333 29.1203 45.8333 24.9998C45.8333 22.264 45.2945 19.5549 44.2475 17.0273C43.2005 14.4996 41.6659 12.203 39.7314 10.2684C37.7968 8.33389 35.5002 6.79932 32.9726 5.75235C30.445 4.70537 27.7359 4.1665 25 4.1665ZM25 8.33317C29.2807 8.33146 33.3954 9.98928 36.4792 12.9582C33.2959 14.8253 29.9227 16.3477 26.4167 17.4998C24.6719 14.4932 22.6714 11.6424 20.4375 8.979C21.9208 8.55191 23.4565 8.33453 25 8.33317ZM16.4375 10.729C18.6202 13.2259 20.5791 15.9098 22.2917 18.7498C18.2023 19.7653 14.0052 20.2829 9.79167 20.2915H9.04167C10.2233 16.2908 12.8624 12.8786 16.4375 10.729ZM12.5 36.0623C9.78907 33.0181 8.30433 29.0761 8.33333 24.9998C8.33333 24.7915 8.33333 24.5832 8.33333 24.3957H9.75C14.682 24.3516 19.5862 23.651 24.3333 22.3123C25 23.5832 25.625 24.8957 26.2292 26.2498C22.9823 27.3945 19.9583 29.0932 17.2917 31.2707L16.6667 31.7707C15.1815 33.1045 13.7894 34.5384 12.5 36.0623ZM25 41.6665C21.6794 41.6739 18.4337 40.6791 15.6875 38.8123C16.7018 37.649 17.7872 36.5497 18.9375 35.5207L19.6042 34.9582C22.0691 32.885 24.8937 31.2821 27.9375 30.229C29.1903 33.6165 30.1657 37.1002 30.8542 40.6457C28.9788 41.3304 26.9965 41.6761 25 41.6665ZM34.6458 38.5623C33.9642 35.4093 33.0734 32.3053 31.9792 29.2707H32.6875C32.7696 29.2504 32.8554 29.2504 32.9375 29.2707H33.1667H33.375H34.375C36.5674 29.2769 38.7433 29.6502 40.8125 30.3748C39.6757 33.6881 37.5164 36.5549 34.6458 38.5623ZM34.375 24.9998C33.9375 24.9998 33.5 24.9998 33.0833 24.9998C32.8136 24.9658 32.5406 24.9658 32.2708 24.9998C31.7046 25.0346 31.141 25.1042 30.5833 25.2082H30.375C29.7708 23.8123 29.1458 22.4582 28.4583 21.0415C32.1888 19.7604 35.7717 18.0842 39.1458 16.0415C40.8197 18.7277 41.694 21.8349 41.6667 24.9998C41.6667 25.354 41.6667 25.7082 41.6667 26.0623C39.3056 25.3336 36.8459 24.9752 34.375 24.9998Z" fill="black"/>
</svg>
