<svg width="53" height="30" viewBox="0 0 53 30" fill="none" xmlns="http://www.w3.org/2000/svg">
<path d="M2 13C0.89543 13 0 13.8954 0 15C0 16.1046 0.89543 17 2 17V13ZM52.4142 16.4142C53.1953 15.6332 53.1953 14.3668 52.4142 13.5858L39.6863 0.857864C38.9052 0.0768156 37.6389 0.0768156 36.8579 0.857864C36.0768 1.63891 36.0768 2.90524 36.8579 3.68629L48.1716 15L36.8579 26.3137C36.0768 27.0948 36.0768 28.3611 36.8579 29.1421C37.6389 29.9232 38.9052 29.9232 39.6863 29.1421L52.4142 16.4142ZM2 17H51V13H2V17Z" fill="white"/>
</svg>
