<svg width="99" height="63" fill="none" xmlns="http://www.w3.org/2000/svg"><path fill-rule="evenodd" clip-rule="evenodd" d="M98.843.42L99 .28a1.112 1.112 0 01-.24-.28c-.214.095-.434.181-.654.267-.352.137-.7.274-1.02.445-1.17.599-2.34 1.225-3.509 1.851l-.002.001c-.584.313-1.168.626-1.751.935l-.005.002c-5.142 2.755-10.283 5.51-15.465 8.172-1.315.68-1.235 1.486-.916 2.384.239.743.956 1.022 1.834.464.358-.232.707-.472 1.056-.712.35-.24.698-.48 1.056-.712a480.346 480.346 0 013.548-2.253c1.641-1.037 3.286-2.075 4.905-3.134 2.08-1.334 4.144-2.69 6.212-4.048h.002c1.34-.882 2.683-1.763 4.032-2.64.291-.176.53-.393.76-.601zM39.688 26.248c-.083.17-.17.35-.276.533l-.164-.068-.003-.001c-.306-.127-.54-.224-.773-.251-.431-.16-.852-.32-1.273-.48-.422-.16-.843-.32-1.274-.479-.063.27-.164.546-.264.821-.209.574-.416 1.143-.284 1.64.666 2.43.705 4.859.51 7.32-.079 1.023-.392 1.598-1.607 1.982-3.173 1.054-6.15 2.397-8.854 4.187-4.153 2.717-6.582 6.169-7.209 10.42-.235 1.534-.235 3.069-.156 4.603.078 1.247-.588 2.014-1.96 2.11-1.88.127-3.8.127-5.72.031-4.779-.255-7.717-3.835-6.973-7.223.204-.875.558-1.735.91-2.591.188-.459.376-.916.54-1.373.235-.671.43-1.47-.627-1.79-.98-.32-1.606.096-2.155.831C.666 48.291 0 50.305 0 52.383c0 3.324 1.214 6.264 5.054 8.086 2.155 1.023 4.584 1.407 7.052 1.407h29.422c.19 0 .392-.008.597-.016.215-.008.436-.016.656-.016 1.282.011 2.564.006 3.846 0h.001c2.244-.008 4.488-.018 6.731.064.466.013.933.037 1.4.06 1.815.093 3.633.186 5.378-.348.522-.149 1.01-.412 1.497-.675.244-.131.488-.263.736-.38-.64.094-1.252.25-1.848.4-.828.21-1.625.413-2.422.431-3.84.084-7.678-.003-11.517-.09l-1.647-.037c-.392 0-.98-.16-1.136-.416a154.82 154.82 0 01-3.173-5.37c-.862-1.502-.823-2.973-.079-4.475.314-.64.706-.767 1.528-.575.752.18 1.51.338 2.267.494.979.202 1.954.404 2.905.657.282.078.572.147.862.216 1.604.384 3.203.765 3.369 2.66.078.863 1.018 1.375 2.194 1.183 1.057-.16 1.841-1.055 1.606-2.014-.549-2.365-1.802-4.283-4.858-5.05a61.166 61.166 0 01-2.233-.703c-2.547-.863-3.33-2.366-2.82-4.603.43-1.95.783-4.028.548-6.01-.235-2.077-.353-3.867 1.724-5.337.117-.096.234-.256.313-.384 1.214-1.726.274-3.196-1.92-3.995-.441-.162-.936-.264-1.437-.366-1.277-.262-2.595-.531-3.186-1.84-.313-.64-.98-.256-1.293.16-.169.217-.293.47-.429.746zm-3.372 30.24v.002c.312.936.62 1.858.941 2.798-1.042.358-1.815-.052-2.588-.461-.332-.176-.663-.351-1.016-.466-.117-.032-.117-.448-.078-.703.196-1.247.392-2.493.666-3.708.052-.236.21-.457.427-.76.106-.15.227-.318.356-.519.467 1.342.883 2.59 1.292 3.817zm30.212-3.727c.03-.306.077-.607.124-.907.078-.493.155-.983.155-1.484-.04-2.142-.638-4.16-1.873-6.086a341.804 341.804 0 00-3.02-4.597c-.509-.765-1.018-1.53-1.522-2.296-1.116-1.677-1.116-3.447-.837-5.216.398-2.453 1.514-4.72 3.626-6.614.118-.11.264-.199.438-.305.12-.072.252-.153.399-.254-.33.493-.68.96-1.02 1.415-.645.864-1.258 1.685-1.65 2.56-1.434 3.167-1.713 6.24.677 9.408 2.391 3.105 4.583 6.427 5.22 10.122.167.954.023 1.953-.12 2.944-.061.43-.123.857-.159 1.279-.12.062-.279.062-.438.03zm.215-32.181c-.132.235-.267.476-.413.718 1.3-.562 2.522-1.105 3.712-1.633.825-.367 1.635-.726 2.445-1.08 1.194-.52.895-2.397-.15-2.772-.41-.144-1.23-.058-1.53.173a29.743 29.743 0 00-2.947 2.916c-.457.499-.778 1.073-1.117 1.678z" fill="#fff"/></svg>