<svg width="42" height="42" fill="none" xmlns="http://www.w3.org/2000/svg"><path d="M21 .167a20.833 20.833 0 100 41.666A20.833 20.833 0 0021 .167zm0 4.166a16.542 16.542 0 0111.48 4.625A51.939 51.939 0 0122.416 13.5a60.562 60.562 0 00-5.98-8.52A16.542 16.542 0 0121 4.332zM12.437 6.73a56.584 56.584 0 015.855 8.021 52.314 52.314 0 01-12.5 1.542h-.75a16.662 16.662 0 017.396-9.563zM8.5 32.063A16.459 16.459 0 014.333 21v-.604H5.75a55.564 55.564 0 0014.583-2.084 68.84 68.84 0 011.896 3.938 29.791 29.791 0 00-8.937 5.02l-.625.5A43.737 43.737 0 008.5 32.064zM21 37.666a16.5 16.5 0 01-9.313-2.855 37.34 37.34 0 013.25-3.291l.667-.563a26.311 26.311 0 018.334-4.729 66.667 66.667 0 012.916 10.417A16.834 16.834 0 0121 37.666zm9.646-3.105a72.646 72.646 0 00-2.667-9.291h.709a.52.52 0 01.25 0h1.437c2.192.006 4.368.38 6.438 1.104a16.542 16.542 0 01-6.167 8.188zM30.375 21h-1.292a3.249 3.249 0 00-.812 0c-.566.035-1.13.104-1.688.208h-.208c-.604-1.395-1.23-2.75-1.917-4.166a55.36 55.36 0 0010.688-5A16.666 16.666 0 0137.666 21v1.063A23.918 23.918 0 0030.376 21z" fill="#000"/></svg>