<svg width="42" height="42" fill="none" xmlns="http://www.w3.org/2000/svg"><path d="M21 10.583a10.417 10.417 0 100 20.834 10.417 10.417 0 000-20.834zm0 16.667a6.25 6.25 0 110-12.5 6.25 6.25 0 010 12.5zM31.417 8.5a2.083 2.083 0 100 4.167 2.083 2.083 0 000-4.167zm10.291 4.667a15.645 15.645 0 00-1-5.209 11.584 11.584 0 00-6.666-6.666 15.646 15.646 0 00-5.209-1C26.813.167 26.146.167 21 .167c-5.146 0-5.813 0-7.833.125-1.78.034-3.542.372-5.209 1a11.583 11.583 0 00-6.666 6.666 15.646 15.646 0 00-1 5.209C.167 15.208.167 15.875.167 21s0 5.792.125 7.833c.034 1.78.372 3.542 1 5.209a11.584 11.584 0 006.666 6.666c1.667.628 3.428.966 5.209 1 2.083 0 2.687.125 7.833.125 5.146 0 5.813 0 7.833-.125a15.646 15.646 0 005.209-1 11.584 11.584 0 006.666-6.666 15.646 15.646 0 001-5.209c0-2.083.125-2.708.125-7.833s0-5.792-.125-7.833zm-4.166 15.479a12.503 12.503 0 01-.73 3.875 7.083 7.083 0 01-1.708 2.604 6.793 6.793 0 01-2.604 1.688 11.979 11.979 0 01-3.896.75c-1.958 0-2.562.104-7.625.104h-7.604a12.502 12.502 0 01-3.896-.73 7.085 7.085 0 01-2.604-1.708 6.792 6.792 0 01-1.688-2.604 11.958 11.958 0 01-.75-3.875V13.458c.036-1.33.29-2.646.75-3.896A6.875 6.875 0 016.875 6.98a6.792 6.792 0 012.604-1.687 11.979 11.979 0 013.896-.75c1.958-.209 2.563-.209 7.625-.209h7.625a12.23 12.23 0 013.917.75c.977.36 1.86.937 2.583 1.688a6.792 6.792 0 011.688 2.604c.51 1.268.798 2.614.854 3.98 0 2.082.104 2.603.104 7.645s-.104 5.646-.104 7.646h-.125z" fill="#000"/></svg>