<svg width="46" height="32" fill="none" xmlns="http://www.w3.org/2000/svg"><path d="M44.06 21.316a2.079 2.079 0 00-2.534 1.506 6.247 6.247 0 01-12.293-1.571v-2.083h14.583a2.082 2.082 0 002.083-2.084A10.418 10.418 0 0028.117 9.72a10.415 10.415 0 00-3.051 7.365v4.167a10.414 10.414 0 0020.499 2.596 2.082 2.082 0 00-1.506-2.531zm-8.577-10.482c1.653 0 3.238.654 4.413 1.817a6.341 6.341 0 011.455 2.35H29.617a6.24 6.24 0 015.866-4.167zm-4.167-6.25h8.333a2.083 2.083 0 000-4.166h-8.333a2.083 2.083 0 000 4.166zm-12.67 9.828A8.305 8.305 0 0012.565.418H2.149A2.083 2.083 0 00.066 2.5v27.083a2.083 2.083 0 002.083 2.084h11.459a9.358 9.358 0 005.037-17.256zM4.232 4.584h8.333a4.167 4.167 0 110 8.334H4.233V4.584zm9.375 22.917H4.233V17.084h9.375a5.209 5.209 0 010 10.417z" fill="#000"/></svg>