<svg width="50" height="50" fill="none" xmlns="http://www.w3.org/2000/svg"><g clip-path="url(#clip0_40_20)"><rect width="50" height="50" rx="8" fill="#FFB74D"/><path d="M42.449 0H7.551C3.398 0 0 3.408 0 7.551v34.898C0 46.602 3.408 50 7.551 50h34.898C46.602 50 50 46.592 50 42.449V7.551C50 3.408 46.592 0 42.449 0zm3.398 42.449c0 1.918-1.49 3.408-3.408 3.408H7.55c-1.918 0-3.408-1.49-3.408-3.408V7.551c0-1.918 1.49-3.408 3.408-3.408h34.898c1.918 0 3.408 1.49 3.408 3.408v34.898h-.01z" fill="#000"/><path d="M23.96 17.327a1.53 1.53 0 00-1.409-.919 1.53 1.53 0 00-1.408.919L15 31.459c-.337.776.02 1.674.796 2.01.204.092.408.133.612.133.592 0 1.153-.347 1.408-.918l1.347-3.082h6.827l1.347 3.082a1.527 1.527 0 002.01.796 1.53 1.53 0 00.796-2.01l-6.184-14.143zm-3.48 9.204l2.081-4.776 2.082 4.776H20.48zm13.122-4.296c-.847 0-1.53.684-1.53 1.53v8.307c0 .846.683 1.53 1.53 1.53s1.53-.683 1.53-1.53v-8.307c0-.846-.683-1.53-1.53-1.53zm0-5.255c-.847 0-1.53.683-1.53 1.53v.408c0 .847.683 1.53 1.53 1.53s1.53-.683 1.53-1.53v-.408c0-.847-.683-1.53-1.53-1.53z" fill="#000"/></g><defs><clipPath id="clip0_40_20"><rect width="50" height="50" rx="8" fill="#fff"/></clipPath></defs></svg>