<svg width="100" height="100" fill="none" xmlns="http://www.w3.org/2000/svg"><g clip-path="url(#clip0_38_37)"><path d="M88.889 100H11.11C4.975 100 0 95.025 0 88.889V11.11C0 4.975 4.975 0 11.111 0H88.89C95.025 0 100 4.975 100 11.111V88.89c0 6.135-4.975 11.11-11.111 11.11z" fill="#000"/><path d="M76.833 37.542c-1.333 3.333-3.395 6.75-6.479 9.937-.041.042-.083.104-.125.146-3.166 3.23-7.375 6.23-12.937 8.625-.563.25-1.105.458-1.646.688a80.488 80.488 0 01-5.542 2.02c-14.666 4.75-22.646 3.063-28.916 19.292-.125.292-.23.604-.355.917 0-.396 0-.792.021-1.188.146-8.937 2.438-27.75 30.188-34.229 2.437-.583 4.666-1.23 6.687-1.938 18.292-6.395 20.396-17.75 20.396-21.5 1.083 3.209 1.604 10.021-1.292 17.23z" fill="#40C4FF"/><path d="M70.354 47.479c-.041.042-.083.104-.125.146-3.166 3.229-7.375 6.229-12.937 8.625-.563.25-1.105.458-1.646.687a80.491 80.491 0 01-5.542 2.021c-14.666 4.75-22.646 3.063-28.916 19.292-.125.291-.23.604-.355.916.042-.333.084-.687.146-1.083a27.85 27.85 0 01.334-1.854c0-.02 0-.063.02-.104 1.188-6.063 4.459-15.5 14.084-19.875 5.833-2.646 22.895-7 34.937-8.771z" fill="#FF4081"/><path d="M50.104 58.958c-14.666 4.75-23 3.98-29.27 20.209l.145-1.084-.125-.104c.146-.542.292-1.125.459-1.75 0-.02 0-.063.02-.104 1.771-6.313 5.709-15.896 20.334-17.792a20.867 20.867 0 018.437.625z" fill="#FFB74D"/><path d="M76.833 37.542c-4.916 3.75-17.02 10.333-39.333 14.541 3.708-2.312 12.77-4.625 20.23-10.27 18.29-6.396 20.395-17.75 20.395-21.5 1.083 3.208 1.604 10.02-1.292 17.229z" fill="#7C4DFF"/><path d="M70.23 47.625c-3.355 2.042-8.334 4.333-16.876 5.958a99.789 99.789 0 01-3.354.584c-8.375 1.291-15.958 3.77-21.5 9.666-.792.834-1.52 1.75-2.23 2.73-2.353 3.27-4.207 7.395-5.437 12.604 0-.396 0-.792.021-1.188.292-8.687 3.98-18.666 15.25-25.541 3.271-2 7.167-3.73 11.813-5.084a67.017 67.017 0 016.25-1.52c10.27-2.022 16.187-5.813 19.562-9.917 5.375-6.48 4.396-13.688 4.396-15.605 1.583 4.73 1.958 17.23-7.896 27.313z" fill="#E040FB"/><path d="M57.427 45.087c-1.037.27-2.114.521-3.26.746-2.23.438-4.292.938-6.25 1.521-4.646 1.354-8.542 3.083-11.813 5.083-6.229 5.542-9.02 11-9.833 14.125.708-.979 1.437-1.895 2.229-2.729 4.654-4.95 10.756-7.477 17.548-8.929 3.52-2.112 8.283-5.383 11.38-9.817z" fill="#FF80AB"/><path d="M47.917 47.354v.042c-3.542 1.52-14.938 7.937-19.417 16.437-3.417 3.646-6.083 8.584-7.667 15.334 0-.396 0-.792.021-1.188.375-11.208 6.396-24.563 27.063-30.625z" fill="#FFE0B2"/></g><defs><clipPath id="clip0_38_37"><path fill="#fff" d="M0 0h100v100H0z"/></clipPath></defs></svg>