<svg width="50" height="50" viewBox="0 0 50 50" fill="none" xmlns="http://www.w3.org/2000/svg">
<g clip-path="url(#clip0_40_20)">
<rect width="50" height="50" rx="8" fill="#FFB74D"/>
<path d="M42.449 0H7.55102C3.39796 0 0 3.40816 0 7.55102V42.449C0 46.602 3.40816 50 7.55102 50H42.449C46.602 50 50 46.5918 50 42.449V7.55102C50 3.40816 46.5918 0 42.449 0ZM45.8469 42.449C45.8469 44.3673 44.3571 45.8571 42.4388 45.8571H7.55102C5.63265 45.8571 4.14286 44.3673 4.14286 42.449V7.55102C4.14286 5.63265 5.63265 4.14286 7.55102 4.14286H42.449C44.3673 4.14286 45.8571 5.63265 45.8571 7.55102V42.449H45.8469Z" fill="black"/>
<path d="M23.9592 17.3266C23.7143 16.7653 23.1632 16.4082 22.551 16.4082C21.9388 16.4082 21.3877 16.7653 21.1428 17.3266L15 31.4592C14.6632 32.2347 15.0204 33.1327 15.7959 33.4694C16 33.5613 16.2041 33.6021 16.4081 33.6021C17 33.6021 17.5612 33.2551 17.8163 32.6837L19.1632 29.6021H25.9898L27.3367 32.6837C27.6735 33.4592 28.5714 33.8164 29.3469 33.4796C30.1224 33.1429 30.4796 32.2347 30.1428 31.4694L23.9592 17.3266ZM20.4796 26.5307L22.5612 21.7551L24.6428 26.5307H20.4796Z" fill="black"/>
<path d="M33.602 22.2349C32.7551 22.2349 32.0714 22.9185 32.0714 23.7655V32.0716C32.0714 32.9185 32.7551 33.6022 33.602 33.6022C34.449 33.6022 35.1326 32.9185 35.1326 32.0716V23.7655C35.1326 22.9185 34.449 22.2349 33.602 22.2349Z" fill="black"/>
<path d="M33.602 16.9795C32.7551 16.9795 32.0714 17.6632 32.0714 18.5101V18.9183C32.0714 19.7652 32.7551 20.4489 33.602 20.4489C34.449 20.4489 35.1326 19.7652 35.1326 18.9183V18.5101C35.1326 17.6632 34.449 16.9795 33.602 16.9795Z" fill="black"/>
</g>
<defs>
<clipPath id="clip0_40_20">
<rect width="50" height="50" rx="8" fill="white"/>
</clipPath>
</defs>
</svg>
