<svg width="100" height="100" viewBox="0 0 100 100" fill="none" xmlns="http://www.w3.org/2000/svg">
<g clip-path="url(#clip0_38_37)">
<path d="M88.8889 100H11.1111C4.975 100 0 95.025 0 88.8889V11.1111C0 4.975 4.975 0 11.1111 0H88.8889C95.025 0 100 4.975 100 11.1111V88.8889C100 95.025 95.025 100 88.8889 100Z" fill="black"/>
<path d="M76.8333 37.5417C75.5 40.875 73.4375 44.2917 70.3542 47.4792C70.3125 47.5208 70.2708 47.5833 70.2291 47.625C67.0625 50.8542 62.8541 53.8542 57.2916 56.25C56.7291 56.5 56.1875 56.7083 55.6458 56.9375C53.6875 57.7292 51.8541 58.3958 50.1041 58.9583C35.4375 63.7083 27.4583 62.0208 21.1875 78.25C21.0625 78.5417 20.9583 78.8542 20.8333 79.1667C20.8333 78.7708 20.8333 78.375 20.8541 77.9792C21 69.0417 23.2916 50.2292 51.0416 43.75C53.4791 43.1667 55.7083 42.5208 57.7291 41.8125C76.0208 35.4167 78.125 24.0625 78.125 20.3125C79.2083 23.5208 79.7292 30.3333 76.8333 37.5417Z" fill="#40C4FF"/>
<path d="M70.3542 47.479C70.3125 47.5207 70.2708 47.5832 70.2291 47.6248C67.0625 50.854 62.8541 53.854 57.2916 56.2498C56.7291 56.4998 56.1875 56.7082 55.6458 56.9373C53.6875 57.729 51.8541 58.3957 50.1041 58.9582C35.4375 63.7082 27.4583 62.0207 21.1875 78.2498C21.0625 78.5415 20.9583 78.854 20.8333 79.1665C20.875 78.8332 20.9166 78.479 20.9791 78.0832C21.0625 77.5207 21.1666 76.8957 21.3125 76.229C21.3125 76.2082 21.3125 76.1665 21.3333 76.1248C22.5208 70.0623 25.7916 60.6248 35.4166 56.2498C41.25 53.604 58.3125 49.2498 70.3542 47.479Z" fill="#FF4081"/>
<path d="M50.1041 58.9582C35.4375 63.7082 27.1041 62.9373 20.8333 79.1665L20.9791 78.0832L20.8541 77.979C21 77.4373 21.1458 76.854 21.3125 76.229C21.3125 76.2082 21.3125 76.1665 21.3333 76.1248C23.1041 69.8123 27.0416 60.229 41.6666 58.3332C44.6875 57.9373 47.5208 58.229 50.1041 58.9582Z" fill="#FFB74D"/>
<path d="M76.8333 37.5417C71.9167 41.2917 59.8125 47.875 37.5 52.0833C41.2083 49.7708 50.2708 47.4583 57.7292 41.8125C76.0208 35.4167 78.125 24.0625 78.125 20.3125C79.2083 23.5208 79.7292 30.3333 76.8333 37.5417Z" fill="#7C4DFF"/>
<path d="M70.2291 47.625C66.875 49.6667 61.8958 51.9583 53.3541 53.5833C52.2916 53.7917 51.1666 53.9792 50 54.1667C41.625 55.4583 34.0416 57.9375 28.5 63.8333C27.7083 64.6667 26.9791 65.5833 26.2708 66.5625C23.9166 69.8333 22.0625 73.9583 20.8333 79.1667C20.8333 78.7708 20.8333 78.375 20.8541 77.9792C21.1458 69.2917 24.8333 59.3125 36.1041 52.4375C39.375 50.4375 43.2708 48.7083 47.9166 47.3542C49.875 46.7708 51.9375 46.2708 54.1666 45.8333C64.4375 43.8125 70.3541 40.0208 73.7291 35.9167C79.1041 29.4375 78.125 22.2292 78.125 20.3125C79.7083 25.0417 80.0833 37.5417 70.2291 47.625Z" fill="#E040FB"/>
<path d="M57.4271 45.0874C56.3896 45.3562 55.3125 45.6082 54.1666 45.8332C51.9375 46.2707 49.875 46.7707 47.9166 47.3541C43.2708 48.7082 39.375 50.4374 36.1041 52.4374C29.875 57.9791 27.0833 63.4374 26.2708 66.5624C26.9791 65.5832 27.7083 64.6666 28.5 63.8332C33.1541 58.8832 39.2562 56.3562 46.0479 54.9041C49.5687 52.7916 54.3312 49.5207 57.4271 45.0874Z" fill="#FF80AB"/>
<path d="M47.9166 47.354V47.3957C44.375 48.9165 32.9791 55.3332 28.5 63.8332C25.0833 67.479 22.4166 72.4165 20.8333 79.1665C20.8333 78.7707 20.8333 78.3748 20.8541 77.979C21.2291 66.7707 27.25 53.4165 47.9166 47.354Z" fill="#FFE0B2"/>
</g>
<defs>
<clipPath id="clip0_38_37">
<rect width="100" height="100" fill="white"/>
</clipPath>
</defs>
</svg>
