<svg width="50" height="50" viewBox="0 0 50 50" fill="none" xmlns="http://www.w3.org/2000/svg">
<g clip-path="url(#clip0_40_28)">
<rect width="50" height="50" rx="25" fill="black"/>
<path d="M22.8963 27.2206C26.5146 19.6663 32.5687 14.8654 39.6994 11C38.9757 15.3949 27.8207 26.1793 22.8963 27.2206Z" fill="#F5F5F5" stroke="#1D1D1B" stroke-width="0.31" stroke-miterlimit="10"/>
<path d="M39.7524 14.4596C38.4463 16.6129 37.2108 18.8015 35.8164 20.9019C33.3277 24.6438 30.3448 27.9268 26.7971 30.6979C26.0557 31.2803 25.2968 31.598 24.326 31.5627C23.5317 31.5451 22.7198 31.7216 21.9256 31.8098C21.7491 30.8038 22.2786 29.48 23.0375 29.1093C29.78 25.8087 35.0574 20.849 39.2405 14.689C39.3288 14.5655 39.417 14.4419 39.5053 14.3184L39.7524 14.4772V14.4596Z" fill="url(#paint0_linear_40_28)" stroke="#1D1D1B" stroke-width="0.31" stroke-miterlimit="10"/>
<path d="M11 38.1992C11.0883 37.9521 11.1412 37.705 11.2471 37.4755C12.0767 35.5164 12.9239 33.5572 13.7535 31.5803C14.0359 30.9096 14.4771 30.539 15.2361 30.4507C16.9658 30.2566 18.6779 29.9918 20.5312 29.7271C20.3017 30.6802 20.0899 31.545 19.8958 32.4099C19.7899 32.8865 19.6134 33.3454 19.6134 33.8219C19.6134 35.4105 18.6955 36.1341 17.3188 36.646C15.4655 37.3343 13.6828 38.1992 11.8825 38.9758L11.7237 38.7993C11.9355 38.5522 12.1296 38.3051 12.3591 38.0757C13.2592 37.1931 14.1418 36.2753 15.0949 35.4634C15.5185 35.0927 16.1186 34.9515 16.5775 34.6338C16.8599 34.4397 17.2482 34.0161 17.1776 33.8219C17.0717 33.4689 16.7011 33.0806 16.3657 32.9571C16.1892 32.8865 15.7479 33.2924 15.5538 33.5748C15.2361 33.9984 15.0772 34.5809 14.7066 34.9692C13.5946 36.1341 12.412 37.2461 11.2471 38.3581L11.0176 38.2169L11 38.1992Z" fill="#FFE0B2" stroke="#1D1D1B" stroke-width="0.31" stroke-miterlimit="10"/>
<path d="M36.6459 11.0352C32.7452 13.4356 29.2328 16.295 26.1793 19.7015C25.9322 19.9662 25.6498 20.2133 25.4909 20.531C24.8026 21.7842 23.3729 21.9254 22.3845 22.7197C21.4843 23.461 20.5488 24.2023 19.7546 25.0495C19.2251 25.6143 18.8368 25.5437 18.2014 25.0672C22.9669 18.5189 29.4623 14.3005 36.6636 11.0352H36.6459Z" fill="url(#paint1_linear_40_28)" stroke="#1D1D1B" stroke-width="0.31" stroke-miterlimit="10"/>
<path d="M49.6709 24.9898C49.6709 11.3587 38.6208 0.308594 24.9897 0.308594C11.3587 0.308594 0.308533 11.3587 0.308533 24.9898C0.308533 38.6208 11.3587 49.671 24.9897 49.671C38.6208 49.671 49.6709 38.6208 49.6709 24.9898Z" stroke="#1D1D1B" stroke-width="0.31" stroke-miterlimit="10"/>
</g>
<rect x="1.5" y="1.5" width="47" height="47" rx="23.5" stroke="black" stroke-width="3" stroke-linejoin="round"/>
<defs>
<linearGradient id="paint0_linear_40_28" x1="36.5" y1="20.5001" x2="19.5" y2="34.0001" gradientUnits="userSpaceOnUse">
<stop stop-color="#FF80AB"/>
<stop offset="1" stop-color="#83FF80"/>
</linearGradient>
<linearGradient id="paint1_linear_40_28" x1="22" y1="24.9999" x2="38.5" y2="10.9999" gradientUnits="userSpaceOnUse">
<stop stop-color="#FF80AB"/>
<stop offset="1" stop-color="#528FE6"/>
</linearGradient>
<clipPath id="clip0_40_28">
<rect width="50" height="50" rx="25" fill="white"/>
</clipPath>
</defs>
</svg>
