<svg width="195" height="154" fill="none" xmlns="http://www.w3.org/2000/svg"><path opacity=".08" d="M45.127 143.588c36.602 24.384 89.346 2.118 121.93-27.465 31.274-28.393 46.483-102.12-9.958-114.188-23.501-5.025-34.188.216-51.496 10.195-13.972 8.057-33.17 4.243-47.056-2.979-19.633-10.211-43.83 4.641-54.19 27.04-12.69 27.448 2.761 82.077 40.77 107.397z" fill="#fff"/><path opacity=".1" d="M45.127 143.588c36.602 24.384 89.346 2.118 121.93-27.465 31.274-28.393 46.483-102.12-9.958-114.188-23.501-5.025-34.188.216-51.496 10.195-13.972 8.057-33.17 4.243-47.056-2.979-19.633-10.211-43.83 4.641-54.19 27.04-12.69 27.448 2.761 82.077 40.77 107.397z" fill="#5B9FFF"/><path d="M51.654 23.77s-.8 12.055-3.499 16.427c-7.772 12.592-10.023 26.757-2.24 34.157 7.782 7.401 57.421 7.504 61.182-9.518 3.166-14.33-3.628-15.871-5.282-27.692-.748-5.349-2.805-16.565-2.805-16.565" fill="#0A0A0A"/><path d="M94.248 62.344c-.086-.011-1.037 15.84-19.366 14.458C62.194 75.847 57.67 62.32 57.38 62.32c1.368-.292 3.672-.717 4.28-1.042 1.997-1.08 4.469-2.201 5.114-6.1.372-2.245-.261-13.742-.065-16.016l19.479 4.368c-.273 4.801-2.177 15.932 4.499 17.902a60.5 60.5 0 003.562.912z" fill="#FFCBB6"/><path opacity=".5" d="M86.458 56.883a14.225 14.225 0 01-.586-3.037A32.554 32.554 0 0186 46.78a21.303 21.303 0 01-10.764-4.738c-.361 1.342-2.35 7.206-1.8 8.481 1.04 2.411 5.931 6.359 13.022 6.359z" fill="#0C0C0C"/><path d="M83.94 51.944c-7.68.748-17.615-2.34-19.674-12.614l-1.857-9.27c-2.058-10.275 1.645-19.69 11.273-21.638 9.629-1.945 18.494 4.927 20.552 15.202l.823 4.105c.79 3.941 2.583 22.883-11.117 24.215z" fill="#FFCBB6"/><path d="M89.402 39.657a12.542 12.542 0 01-8.09 1.145.508.508 0 00-.604.473.513.513 0 00.063.279c.82 1.45 2.763 3.93 6.097 2.919 2.153-.653 2.967-2.878 3.269-4.255a.514.514 0 00-.456-.618.507.507 0 00-.28.057z" fill="#fff"/><path d="M89.558 28.508c.666 0 1.205-.543 1.205-1.211 0-.67-.54-1.212-1.205-1.212a1.21 1.21 0 00-1.206 1.212c0 .668.54 1.21 1.206 1.21zm-11.585 2.038c.666 0 1.205-.543 1.205-1.212 0-.668-.54-1.21-1.205-1.21-.666 0-1.206.542-1.206 1.21 0 .67.54 1.212 1.206 1.212z" fill="#0C0C0C"/><path opacity=".1" d="M79.059 38.48c1.263-.15 2.198-1.029 2.088-1.96-.111-.931-1.225-1.563-2.489-1.412-1.264.152-2.198 1.03-2.088 1.96.11.932 1.225 1.564 2.489 1.413zm13.353-3.723c.111.93 1.227 1.561 2.49 1.412a3.16 3.16 0 00.642-.147c.06-1.108.062-2.175.03-3.163a2.894 2.894 0 00-1.074-.063c-1.263.15-2.198 1.027-2.088 1.961z" fill="#0C0C0C"/><path opacity=".5" d="M86.828 37.632l.018-.003c.39-.082.776-.185 1.155-.31.565-.19 1.303-.502 1.202-1.016-.117-.585-2.98-6.58-3.304-7.26a.249.249 0 00-.334-.122.248.248 0 00-.14.243.251.251 0 00.027.095c1.22 2.553 3.186 6.75 3.265 7.144-.062.183-1 .542-1.968.738a.248.248 0 00-.205.286.25.25 0 00.284.206v-.001z" fill="#0C0C0C"/><path d="M54.727 33.387l8.632-1.694c6.52-2.74 8.37-14.157 8.37-14.157s8.048 7.7 27.28 3.043c0 0-4.177-26.975-32.576-18.785-9.157 2.64-15.644 12.017-14.679 24.439.676 8.703 2.973 7.154 2.973 7.154z" fill="#0A0A0A"/><path d="M65.491 42.34c-2.926.591-5.928-2.074-6.518-5.015-.59-2.94 1.459-5.04 4.385-5.633l1.902 1.665 2.747 8.473-2.516.51z" fill="#FFCBB6"/><path d="M87.974 24.263a5.057 5.057 0 012.482-.916c.448-.042.9-.017 1.34.075.445.092.877.238 1.286.438l.013.006a.189.189 0 00.252-.092.191.191 0 00-.091-.253 5.816 5.816 0 00-1.37-.518 4.904 4.904 0 00-1.466-.13 5.565 5.565 0 00-2.793.935.285.285 0 00-.075.398.288.288 0 00.293.119.284.284 0 00.102-.044l.007-.005.02-.013zm-7.886 1.095a5.565 5.565 0 00-2.938.209 4.92 4.92 0 00-1.304.684 5.848 5.848 0 00-1.067 1.005.191.191 0 00.014.267.188.188 0 00.266-.01l.01-.01a5.426 5.426 0 011.02-.899 4.464 4.464 0 011.212-.585 5.056 5.056 0 012.642-.108l.021.005a.284.284 0 00.344-.21.287.287 0 00-.21-.345l-.01-.003zm-16.723 6.193c5.802-2.17 7.728-6.196 8.32-9.192a14.676 14.676 0 00-.105-6.038l-.18.05c.447 1.957.482 3.987.102 5.958-.585 2.947-2.483 6.909-8.202 9.047l.065.175z" fill="#0C0C0C"/><path d="M117.101 72.124l23.731 63.396-19.696-5.598 44.794-33.566 15.958 21.924-45.414 32.715a13.041 13.041 0 01-11.034 2.003 13.08 13.08 0 01-5.084-2.689 13.168 13.168 0 01-3.45-4.617l-.127-.295-27.26-61.948L117.1 72.124z" fill="#5B9FFF"/><path d="M74.54 72.838c-12.697-.601-13.232-11.43-13.232-11.43s-6.291.408-10.474.977c-6.847.931-11.364 3.264-14.959 6.875-3.344 3.36-5.38 6.995-3.225 30.203 1.56 16.805.462 53.767.462 53.767h76.633s4.595-48.448 5.236-56.012c1.222-14.44 6.229-22.58-.769-30.018-5.075-5.395-18.176-5.792-23.45-5.791-.085 0 1.071 12.248-16.221 11.429z" fill="#5B9FFF"/><path d="M148.207 75.25c-4.763-8.083-15.543-9.054-23.588-4.266l-.51.318-.342-.554c-4.924-7.985-14.961-12.15-22.909-7.203a17.005 17.005 0 00-7.565 10.569 17.077 17.077 0 002.09 12.847l16.357 25.962a3.765 3.765 0 005.164 1.208l25.96-15.952a17.004 17.004 0 007.26-10.385 17.076 17.076 0 00-1.917-12.544z" fill="#5B9FFF"/><path opacity=".6" d="M148.207 75.25c-4.763-8.083-15.543-9.054-23.588-4.266l-.51.318-.342-.554c-4.924-7.985-14.961-12.15-22.909-7.203a17.005 17.005 0 00-7.565 10.569 17.077 17.077 0 002.09 12.847l16.357 25.962a3.765 3.765 0 005.164 1.208l25.96-15.952a17.004 17.004 0 007.26-10.385 17.076 17.076 0 00-1.917-12.544z" fill="#fff"/><path d="M120.782 91.966c-8.446-5.114-18.941-.601-24.031 7.884l-.316.552-.593-.342c-8.546-4.944-19.942-3.77-24.861 4.817a18.014 18.014 0 00-1.768 13.615 17.93 17.93 0 008.333 10.883l28.11 15.896a3.965 3.965 0 002.999.375 3.983 3.983 0 002.399-1.847l16.172-27.854a18.016 18.016 0 001.576-13.291 17.933 17.933 0 00-8.02-10.688z" fill="#5B9FFF"/><path opacity=".5" d="M120.782 91.966c-8.446-5.114-18.941-.601-24.031 7.884l-.316.552-.593-.342c-8.546-4.944-19.942-3.77-24.861 4.817a18.014 18.014 0 00-1.768 13.615 17.93 17.93 0 008.333 10.883l28.11 15.896a3.965 3.965 0 002.999.375 3.983 3.983 0 002.399-1.847l16.172-27.854a18.016 18.016 0 001.576-13.291 17.933 17.933 0 00-8.02-10.688z" fill="#fff"/><path d="M113.417 103.998a.187.187 0 11.373.024l-1.559 25.006a.186.186 0 01-.171.176h-.026a.188.188 0 01-.175-.199" fill="#0C0C0C"/><path d="M171.511 101.754a2.02 2.02 0 01.733-1.423 2.017 2.017 0 011.532-.444 2.106 2.106 0 011.753 2.271l-.194 2.732 3.991-7.359c.49-.936 1.687-1.77 2.695-1.148.849.45 2.448.205 3.037 1.33.01.004 3.091 10.965 2.637 11.835-1.928 3.683-8.412 6.137-12.534 5.725l-6.487-.653 2.837-12.866z" fill="#FFCBB6"/><path d="M171.511 101.754a2.02 2.02 0 01.733-1.423 2.017 2.017 0 011.532-.444 2.106 2.106 0 011.753 2.271l-.194 2.732 3.991-7.359c.49-.936 1.687-1.77 2.695-1.148.849.45 2.448.205 3.037 1.33.01.004 3.091 10.965 2.637 11.835-1.928 3.683-8.412 6.137-12.534 5.725l-6.487-.653 2.837-12.866z" fill="#0C0C0C" opacity=".1"/><path d="M178.614 93.424c-7.449-9.468-21.342-8.842-30.765-1.357l-.596.493-.53-.646c-7.635-9.318-21.132-12.884-30.405-5.211a21.83 21.83 0 00-5.373 6.6 21.953 21.953 0 00-1.603 16.65 21.883 21.883 0 004.014 7.513l25.273 30.231a4.836 4.836 0 006.782.645l30.323-24.799a21.89 21.89 0 007.467-14.478 21.926 21.926 0 00-4.587-15.641z" fill="#FF7671"/><path d="M178.95 107.036a1.663 1.663 0 011.202-1.6c-.012-.027-.06-.082-.013-.101l-1.359-.242a1.693 1.693 0 01-1.425-1.698 1.63 1.63 0 01.471-1.07 1.613 1.613 0 011.063-.476c-.009-.013-.006-.032-.011-.047l-.558-.1a1.655 1.655 0 01-.979-.537 1.677 1.677 0 01-.42-1.039 1.626 1.626 0 011.905-1.643l1.288.23c0-.008-.006-.013-.005-.02.001-.007.011-.014.014-.022a1.624 1.624 0 01-.969-1.784c.104-.949 1.22-1.302 2.053-1.154l2.587.673a2.516 2.516 0 011.737 1.61c1.17 3.386 4.018 12.304 1.36 11.831l-6.542-1.164a1.764 1.764 0 01-1.399-1.647zm-79.009 12.635l10.162-7.749a2.008 2.008 0 012.353-.063c.232.158.429.363.578.602a2.1 2.1 0 01-.574 2.755l-2.179 1.662 9.239-2.065c1.023-.248 2.437.106 2.637 1.277a2.035 2.035 0 01-1.061 2.288.102.102 0 01.011.029.088.088 0 010 .023l1.578-.381a2.015 2.015 0 012.271 1.048c.137.269.212.565.221.867.004.476-.155.939-.45 1.311a2.064 2.064 0 01-1.17.734l-.67.163a.17.17 0 01-.024.061c.479-.004.943.163 1.311.472.367.308.613.738.695 1.212a2.1 2.1 0 01-.351 1.485 2.078 2.078 0 01-1.26.851l-1.668.404a.183.183 0 01.112.129.172.172 0 01-.01.103 2.035 2.035 0 011.496 1.95 2.068 2.068 0 01-1.621 1.995l-14.072 3.405a10.112 10.112 0 01-5.931-.359 10.173 10.173 0 01-4.718-3.63 6.764 6.764 0 011.402-9.288l1.693-1.291z" fill="#FFCBB6"/><path d="M111.961 120.468a.186.186 0 00.221.138l8.784-1.975a.19.19 0 00.117-.083.189.189 0 00-.058-.258.184.184 0 00-.141-.025l-8.784 1.975a.198.198 0 00-.117.083.184.184 0 00-.023.142l.001.003zm.76 3.916a.187.187 0 00.083.115.187.187 0 00.139.023l9.802-2.204a.203.203 0 00.067-.03.186.186 0 00-.009-.31c-.042-.026-.092-.036-.14-.026l-9.803 2.204a.169.169 0 00-.067.03.188.188 0 00-.074.194l.002.004zm.799 4.247a.186.186 0 00.221.137l7.822-1.759a.189.189 0 00.117-.082.189.189 0 00-.058-.259.188.188 0 00-.141-.024l-7.821 1.759a.182.182 0 00-.143.151.2.2 0 00.002.073l.001.004z" fill="#0C0C0C" opacity=".2"/><path d="M104.304 138.211L39.725 152.96a13.896 13.896 0 01-6.34-.783 13.954 13.954 0 01-5.33-3.537 14.054 14.054 0 01-3.206-5.553 14.095 14.095 0 01-.409-6.405l7.39-59.724a14.041 14.041 0 015.673-9.103 13.916 13.916 0 0110.419-2.407 13.96 13.96 0 019.06 5.699 14.085 14.085 0 012.396 10.467l-3.559 42.748 44.868-10.201 3.617 24.05z" fill="#5B9FFF"/><path d="M46.74 126.042a.191.191 0 01-.136-.045.19.19 0 01-.02-.265.182.182 0 01.128-.064l9-1.931a.18.18 0 01.138.034.187.187 0 01-.083.336l-9 1.931a.26.26 0 01-.027.004z" fill="#0C0C0C"/><path d="M41.663 153.23a.188.188 0 01-.024-.374l62.26-14.733-3.528-23.688-44.6 9.675a.18.18 0 01-.086-.009.192.192 0 01-.116-.121.19.19 0 01-.006-.087l2.502-24.425a.185.185 0 01.142-.152.186.186 0 01.226.214l-2.459 24.175 44.484-9.681a.185.185 0 01.074-.006.21.21 0 01.069.024.189.189 0 01.087.117l3.618 24.051a.187.187 0 01-.132.225l-62.487 14.793a.196.196 0 01-.024.002z" fill="#0C0C0C"/><path d="M184.46 44.282c-2.458-4.172-8.024-4.673-12.177-2.203l-.264.164-.176-.286c-2.542-4.122-7.724-6.272-11.827-3.718a8.777 8.777 0 00-3.904 5.455 8.813 8.813 0 001.078 6.632l8.444 13.402a1.943 1.943 0 002.666.624l13.401-8.235a8.777 8.777 0 003.747-5.36 8.818 8.818 0 00-.988-6.475z" fill="#FF7671"/><path opacity=".2" d="M184.46 44.282c-2.458-4.172-8.024-4.673-12.177-2.203l-.264.164-.176-.286c-2.542-4.122-7.724-6.272-11.827-3.718a8.777 8.777 0 00-3.904 5.455 8.813 8.813 0 001.078 6.632l8.444 13.402a1.943 1.943 0 002.666.624l13.401-8.235a8.777 8.777 0 003.747-5.36 8.818 8.818 0 00-.988-6.475z" fill="#fff"/><path d="M147.759 4.927c-2.232-1.313-4.971-.094-6.277 2.15l-.082.145-.156-.087c-2.259-1.268-5.244-.922-6.506 1.347a4.731 4.731 0 00-.418 3.578 4.71 4.71 0 002.223 2.827l7.428 4.075a1.042 1.042 0 001.411-.404l4.149-7.363a4.725 4.725 0 00.368-3.492 4.7 4.7 0 00-2.14-2.776z" fill="#5B9FFF"/><path opacity=".5" d="M147.759 4.927c-2.232-1.313-4.971-.094-6.277 2.15l-.082.145-.156-.087c-2.259-1.268-5.244-.922-6.506 1.347a4.731 4.731 0 00-.418 3.578 4.71 4.71 0 002.223 2.827l7.428 4.075a1.042 1.042 0 001.411-.404l4.149-7.363a4.725 4.725 0 00.368-3.492 4.7 4.7 0 00-2.14-2.776z" fill="#fff"/><path d="M183.116 153.604H18.788a.374.374 0 010-.748h164.328a.373.373 0 110 .748z" fill="#292A2E"/></svg>