<svg width="350" height="50" viewBox="0 0 350 50" fill="none" xmlns="http://www.w3.org/2000/svg">
<path d="M210.957 16.25C209.872 17.23 208.623 17.93 207.002 17.92C205.87 17.92 205.45 17.65 204.902 17.06C204.47 17.27 204.062 17.5 203.618 17.68C202.977 17.94 202.3 18.01 201.6 17.86C200.865 17.7 200.422 17.02 200.363 16.44C200.34 16.14 200.34 15.84 200.352 15.54C200.352 15.34 200.27 15.26 200.025 15.26C199.885 15.26 199.745 15.19 199.617 15.21C199.488 15.22 199.313 15.28 199.255 15.36C198.52 16.52 197.33 17.23 196.035 17.86C195.02 18.35 193.947 18.65 192.815 18.77C191.438 18.92 190.05 18.9 188.813 18.25C187.95 17.8 187.483 17.08 187.133 16.28C186.655 15.16 186.597 13.98 186.737 12.82C186.865 11.83 187.18 10.85 187.518 9.89003C187.88 8.85003 188.533 7.92002 189.315 7.07002C190.657 5.61002 192.337 4.66003 194.542 4.45003C195.568 4.35003 196.572 4.36 197.552 4.61C197.855 4.69 198.158 4.80003 198.415 4.95003C198.987 5.28003 199.138 5.89002 198.835 6.47002C198.532 7.04002 198.1 7.18 197.295 7.08C196.723 7.01 196.467 6.72002 196.385 6.29002C196.35 6.10002 196.432 5.90001 196.467 5.71001C196.758 5.79001 197.05 5.87002 197.33 5.97002C197.388 5.99002 197.4 6.11003 197.435 6.20003C197.505 6.21003 197.575 6.23001 197.633 6.21001C197.75 6.18001 197.855 6.13 197.972 6.08C197.913 5.98 197.878 5.83 197.785 5.8C197.47 5.69 197.132 5.57001 196.793 5.56001C195.65 5.50001 194.507 5.54002 193.422 5.91002C192.29 6.29002 191.252 6.83002 190.505 7.66002C189.257 9.03002 188.533 10.59 188.277 12.31C188.102 13.46 188.125 14.58 188.615 15.68C189.105 16.78 189.933 17.11 191.135 17.15C192.593 17.21 193.993 16.96 195.288 16.41C196.058 16.09 196.84 15.74 197.47 15.08C197.167 15.04 196.945 14.98 196.723 14.98C195.242 14.97 193.748 14.98 192.267 14.98C191.835 14.98 191.392 14.98 190.96 14.98C190.657 14.98 190.4 14.92 190.388 14.6C190.365 14.28 190.33 13.96 190.307 13.64C190.295 13.31 190.563 13.2 190.878 13.2C192.593 13.17 194.308 13.07 196.012 13.15C197.575 13.22 199.127 13.46 200.678 13.63C200.923 13.66 201.11 13.66 201.32 13.46C201.915 12.89 202.58 12.41 203.502 12.23C204.598 12.01 205.625 12.16 206.523 12.67C207.083 12.99 207.538 13.6 207.048 14.27C206.815 14.59 206.71 14.98 206.582 15.35C206.488 15.63 206.768 15.89 207.142 15.86C208.378 15.74 209.463 15.39 210.012 14.33C210.152 14.07 210.245 13.83 210.222 13.5C210.117 11.81 210 10.11 210.058 8.41002C210.117 6.77002 210.42 5.13 211.225 3.61C211.423 3.24 211.75 2.86002 212.135 2.63002C212.368 2.49002 212.893 2.54003 213.197 2.67003C214.118 3.05003 214.445 3.78 214.492 4.61C214.527 5.36 214.585 6.12001 214.573 6.87001C214.538 8.21001 214.293 9.53001 213.78 10.81C213.372 11.82 212.928 12.83 212.45 13.81C212.287 14.14 212.333 14.41 212.473 14.69C212.718 15.2 212.998 15.7 213.255 16.21C213.453 16.6 213.838 16.49 214.095 16.35C214.877 15.94 215.658 15.5 216.242 14.86C216.615 14.46 217.023 14.08 217.362 13.66C217.478 13.51 217.467 13.25 217.455 13.04C217.432 12.36 217.373 11.68 217.362 11C217.327 8.72001 217.642 6.47002 218.493 4.29002C218.575 4.07002 218.727 3.85002 218.89 3.66002C219.287 3.21002 219.788 3.17003 220.605 3.45003C221.177 3.64003 221.48 4.02003 221.772 4.45003C222.402 5.42003 222.647 6.46001 222.612 7.56001C222.542 9.50001 221.527 11.15 220.418 12.77C220.162 13.14 219.893 13.51 219.637 13.88C219.59 13.95 219.567 14.06 219.59 14.14C219.905 15.11 220.64 15.82 221.632 16.32C221.865 16.44 222.262 16.41 222.542 16.33C223.627 16.04 224.642 15.62 225.505 14.97C225.797 14.75 225.983 14.54 225.925 14.12C225.762 13.02 225.855 11.91 226.555 10.94C227.22 10.02 228.025 9.95001 229.238 10.4C229.938 10.66 230.23 11.53 229.962 12.33C229.705 13.1 229.238 13.78 228.69 14.42C228.55 14.58 228.41 14.74 228.293 14.91C228.165 15.08 228.515 15.45 228.807 15.42C229.215 15.37 229.647 15.32 230.008 15.16C231.233 14.65 232.365 14 233.217 13.07C233.45 12.81 233.613 12.5 233.777 12.2C234.068 11.63 234.885 11.55 235.387 12.03C235.702 12.34 235.667 12.71 235.748 13.06C235.795 13.25 235.807 13.45 235.842 13.67C236.355 13.17 236.81 12.68 237.335 12.24C237.86 11.81 238.455 11.43 239.038 11.06C239.388 10.83 239.727 11.06 240.053 11.17C240.1 11.19 240.147 11.22 240.193 11.24C240.73 11.52 240.8 11.78 240.392 12.19C239.89 12.68 239.54 13.24 239.435 13.89C239.388 14.2 239.423 14.53 239.517 14.83C239.552 14.95 239.82 15.1 239.983 15.11C240.952 15.14 241.85 14.99 242.713 14.55C243.46 14.17 244.207 13.8 244.755 13.22C245.152 12.81 245.513 12.36 245.793 11.89C245.968 11.59 245.945 11.2 246.05 10.86C246.272 10.17 246.598 10.02 247.403 10.23C248.092 10.41 248.395 10.87 248.138 11.42C248.103 11.5 248.092 11.59 248.045 11.65C247.555 12.34 247.987 12.9 248.465 13.38C249.62 14.52 250.985 15.39 252.758 15.71C253.167 15.78 253.54 15.94 253.762 16.32C253.902 16.57 253.948 16.78 253.832 17.02C253.295 18.12 252.642 19.16 251.825 20.12C250.892 21.22 249.702 22.09 248.418 22.88C246.867 23.82 245.128 24.33 243.332 24.77C242.165 25.06 240.998 25.13 239.808 25.1C239.237 25.09 238.642 25 238.21 24.63C237.942 24.4 237.638 24.09 237.58 23.79C237.487 23.21 237.452 22.59 237.592 22.03C237.743 21.44 238.292 21.05 238.945 20.76C240.077 20.25 241.29 19.98 242.538 19.8C243.973 19.59 245.42 19.44 246.867 19.29C247.893 19.19 248.92 19.14 249.947 19.06C250.04 19.05 250.168 19.01 250.215 18.94C250.635 18.43 251.043 17.91 251.475 17.37C249.352 16.7 247.613 15.71 246.458 13.99C245.98 14.41 245.548 14.86 245.035 15.24C243.915 16.06 242.713 16.79 241.197 16.94C240.555 17.01 239.878 16.97 239.248 16.86C238.362 16.7 237.627 15.8 237.603 14.99C237.603 14.86 237.603 14.73 237.603 14.59C237.568 14.58 237.522 14.56 237.487 14.55C237.183 15.11 236.833 15.66 236.6 16.25C236.343 16.89 235.853 17.34 235.223 17.69C234.943 17.84 234.687 17.77 234.617 17.49C234.488 17.04 234.407 16.59 234.337 16.13C234.278 15.74 234.278 15.35 234.243 14.95C234.232 14.88 234.185 14.82 234.138 14.73C233.415 15.25 232.75 15.81 231.992 16.27C230.953 16.9 229.845 17.43 228.503 17.38C227.792 17.35 227.313 16.98 226.893 16.52C226.835 16.45 226.777 16.39 226.777 16.38C225.773 16.93 224.828 17.54 223.79 17.98C222.833 18.38 221.748 18.42 220.768 18.01C219.59 17.51 218.762 16.7 218.272 15.64C218.26 15.61 218.225 15.58 218.248 15.6C217.362 16.28 216.487 16.97 215.577 17.64C215.063 18.02 214.492 18.31 213.792 18.38C212.66 18.49 212.007 17.93 211.505 17.18C211.295 16.93 211.132 16.59 210.957 16.25ZM219.077 11.32C219.123 11.33 219.17 11.35 219.217 11.36C219.672 10.44 220.162 9.53001 220.558 8.59001C220.85 7.91001 220.873 7.19 220.663 6.49C220.523 6.01 220.477 5.47 219.917 5.11C219.182 7.15 218.983 9.22002 219.077 11.32ZM202.732 16.11C202.79 16.09 202.942 16.08 203.023 16.01C203.583 15.53 204.132 15.04 204.68 14.55C204.96 14.3 205.182 14.01 204.913 13.69C204.622 13.34 204.202 13.51 203.828 13.6C203.747 13.62 203.677 13.65 203.607 13.69C202.825 14.14 202.522 14.86 202.207 15.57C202.078 15.85 202.335 16.1 202.732 16.11ZM212.66 4.64003C211.832 6.58003 211.727 8.60003 211.855 10.64C212.672 8.69003 213.045 6.70003 212.66 4.64003ZM248.698 20.3C248.675 20.26 248.663 20.22 248.64 20.18C246.295 20.94 243.938 21.71 241.593 22.47C241.605 22.5 241.617 22.53 241.64 22.56C244.265 22.44 246.587 21.62 248.698 20.3ZM228.083 11.39C227.978 11.46 227.663 11.55 227.582 11.72C227.395 12.11 227.278 12.54 227.22 12.96C227.197 13.12 227.395 13.37 227.57 13.46C227.838 13.59 228.095 13.43 228.212 13.21C228.422 12.8 228.608 12.37 228.76 11.94C228.853 11.64 228.562 11.37 228.083 11.39Z" fill="white"/>
<path d="M278.53 46.23C276.85 46.23 275.24 46.23 273.583 46.23C273.583 44.76 273.583 43.3 273.583 41.81C270.258 41.81 266.968 41.81 263.632 41.81C263.632 43.27 263.632 44.74 263.632 46.22C261.963 46.22 260.342 46.22 258.673 46.22C258.673 46.08 258.673 45.95 258.673 45.82C258.673 41.59 258.673 37.37 258.673 33.14C258.673 31.48 259.093 29.92 260.062 28.46C261.077 26.94 262.465 25.79 264.285 24.98C266.933 23.8 269.64 23.77 272.312 24.72C274.377 25.45 275.998 26.7 277.118 28.41C278.145 29.97 278.542 31.62 278.53 33.38C278.518 37.51 278.53 41.64 278.53 45.77C278.53 45.92 278.53 46.07 278.53 46.23ZM263.62 37.38C266.968 37.38 270.258 37.38 273.548 37.38C273.548 35.77 273.583 34.18 273.537 32.6C273.502 31.46 272.918 30.47 271.962 29.7C270.562 28.57 268.87 28.26 267.05 28.76C265.16 29.28 264.063 30.48 263.737 32.12C263.573 32.93 263.643 33.77 263.62 34.59C263.608 35.52 263.62 36.44 263.62 37.38Z" fill="white"/>
<path d="M39.2467 46.25C37.4033 46.25 35.63 46.26 33.8566 46.24C33.7166 46.24 33.53 46.09 33.4483 45.96C32.4567 44.35 31.4767 42.73 30.4967 41.12C29.7383 39.87 28.9683 38.61 28.1633 37.3C27.79 37.72 27.4516 38.11 27.125 38.5C27.0316 38.61 26.9616 38.75 26.8566 38.86C26.075 39.78 25.2817 40.7 24.5117 41.63C24.4067 41.75 24.3483 41.94 24.3483 42.09C24.3366 43.34 24.3366 44.59 24.3366 45.84C24.3366 45.97 24.3366 46.1 24.3366 46.24C22.6683 46.24 21.0467 46.24 19.4017 46.24C19.39 46.11 19.3783 45.99 19.3783 45.87C19.3783 38.75 19.3783 31.63 19.3667 24.51C19.3667 24.19 19.4483 24.08 19.845 24.08C21.175 24.1 22.5166 24.09 23.8467 24.09C23.9866 24.09 24.1266 24.09 24.3016 24.09C24.3016 27.76 24.3016 31.4 24.3016 35.05C24.3366 35.06 24.3717 35.07 24.395 35.08C24.8617 34.53 25.3283 33.99 25.795 33.44C25.8533 33.37 25.8883 33.29 25.9466 33.23C26.7983 32.23 27.65 31.24 28.49 30.23C29.4583 29.07 30.4267 27.91 31.395 26.75C32.0717 25.94 32.725 25.12 33.4017 24.32C33.495 24.21 33.6816 24.1 33.8216 24.1C35.5366 24.09 37.2517 24.09 38.955 24.09C39.0017 24.09 39.06 24.11 39.1416 24.12C38.885 24.45 38.6633 24.76 38.4183 25.06C37.625 26 36.8083 26.94 36.015 27.88C34.9883 29.09 33.9733 30.31 32.9466 31.52C32.48 32.07 32.025 32.63 31.5467 33.18C31.4067 33.34 31.36 33.47 31.4767 33.66C32.41 35.15 33.3316 36.64 34.2533 38.14C35.35 39.92 36.4467 41.7 37.5317 43.48C38.1383 44.39 38.6633 45.29 39.2467 46.25Z" fill="white"/>
<path d="M202.02 30.72C202.02 30.59 202.02 30.46 202.02 30.34C202.02 28.08 202.02 25.83 202.02 23.57C202.02 23.09 202.02 23.09 202.568 23.09C203.828 23.09 205.1 23.1 206.36 23.09C206.64 23.09 206.757 23.15 206.757 23.41C206.745 30.97 206.745 38.54 206.745 46.1C206.745 46.14 206.733 46.17 206.722 46.26C206.395 46.26 206.068 46.28 205.742 46.25C205.637 46.24 205.52 46.13 205.438 46.04C204.89 45.37 204.353 44.7 203.817 44.03C203.058 44.52 202.382 45.06 201.612 45.44C200.807 45.83 199.92 46.17 199.022 46.36C196.817 46.84 194.67 46.52 192.733 45.54C190.703 44.52 189.257 43.03 188.487 41.11C187.483 38.58 187.588 36.09 188.965 33.66C189.84 32.12 191.147 30.94 192.897 30.09C195.055 29.04 197.295 28.85 199.663 29.41C200.608 29.62 201.297 30.14 202.02 30.72ZM202.008 38.17C202.032 36.88 201.623 35.99 200.993 35.13C200.258 34.16 199.197 33.66 197.96 33.35C197.307 33.19 196.653 33.31 196 33.49C194.647 33.86 193.655 34.55 193.118 35.68C192.442 37.1 192.43 38.51 193.188 39.93C193.737 40.96 194.623 41.68 195.79 42.09C196.98 42.51 198.182 42.44 199.348 41.81C201.075 40.9 201.868 39.57 202.008 38.17Z" fill="white"/>
<path d="M65.9167 31.67C66.4767 31.07 66.99 30.49 67.5383 29.93C67.6433 29.82 67.8417 29.73 68.0167 29.71C68.2733 29.67 68.5417 29.7 68.8333 29.7C68.8333 35.22 68.8333 40.7 68.8333 46.19C67.9933 46.4 67.5617 46.19 67.0483 45.44C66.71 44.95 66.3017 44.49 65.9283 44.01C65.1583 44.51 64.47 45.01 63.7116 45.43C63.1983 45.72 62.6267 45.93 62.0433 46.11C59.4767 46.89 56.98 46.64 54.6467 45.53C52.2083 44.36 50.785 42.49 50.2133 40.16C49.7467 38.22 49.8167 36.29 50.6217 34.42C51.0183 33.51 51.59 32.68 52.3133 31.91C53.0367 31.14 53.9117 30.58 54.8917 30.1C57.4817 28.82 60.165 28.72 62.8483 29.81C63.7467 30.17 64.5167 30.76 65.3333 31.26C65.5317 31.37 65.695 31.5 65.9167 31.67ZM64.12 38.09C64.1083 36.85 63.7116 35.98 63.0933 35.15C62.3466 34.15 61.2617 33.6 59.99 33.36C58.5783 33.09 57.365 33.61 56.28 34.35C56.0233 34.53 55.79 34.76 55.615 35C54.6933 36.29 54.5533 37.69 54.88 39.13C55.1833 40.46 56.0467 41.48 57.4933 42.03C58.8233 42.53 60.1767 42.55 61.495 41.83C63.2217 40.87 63.9917 39.52 64.12 38.09Z" fill="white"/>
<path d="M133.828 30.44C134.272 30.2 134.598 29.95 134.983 29.81C136.325 29.3 137.737 29.28 139.148 29.54C140.758 29.83 142.135 30.53 143.243 31.54C144.748 32.91 145.623 34.57 145.658 36.47C145.705 39.68 145.682 42.88 145.682 46.09C145.682 46.14 145.67 46.18 145.658 46.24C144.095 46.24 142.543 46.24 140.968 46.24C140.957 46.11 140.945 45.99 140.945 45.87C140.945 42.95 140.91 40.03 140.957 37.12C140.968 36.21 140.747 35.41 140.082 34.71C138.647 33.21 135.777 33.32 134.505 34.94C134.027 35.56 133.817 36.26 133.828 37.02C133.84 39.95 133.84 42.88 133.84 45.81C133.84 45.94 133.84 46.07 133.84 46.23C132.277 46.23 130.737 46.23 129.15 46.23C129.138 46.11 129.127 45.99 129.127 45.86C129.127 38.43 129.127 31 129.127 23.56C129.127 23.08 129.127 23.08 129.687 23.08C130.877 23.08 132.078 23.08 133.268 23.08C133.84 23.08 133.84 23.08 133.84 23.59C133.84 25.72 133.84 27.84 133.84 29.97C133.828 30.09 133.828 30.22 133.828 30.44Z" fill="white"/>
<path d="M170.625 29.69C172.212 29.69 173.74 29.69 175.303 29.69C175.303 35.2 175.303 40.7 175.303 46.24C174.988 46.24 174.662 46.26 174.347 46.23C174.242 46.22 174.113 46.12 174.043 46.03C173.588 45.47 173.145 44.91 172.678 44.33C172.165 44.66 171.663 44.95 171.208 45.28C170.287 45.94 169.213 46.29 168.058 46.45C166.145 46.71 164.313 46.4 162.692 45.5C160.463 44.26 159.227 42.45 158.912 40.2C158.807 39.45 158.795 38.69 158.795 37.94C158.783 35.36 158.795 32.78 158.795 30.2C158.795 30.05 158.795 29.89 158.795 29.71C160.358 29.71 161.898 29.71 163.485 29.71C163.485 29.86 163.485 30 163.485 30.14C163.485 32.98 163.485 35.83 163.485 38.67C163.485 39.64 163.683 40.55 164.453 41.32C165.608 42.48 167.323 42.66 168.467 42.06C169.832 41.34 170.637 40.27 170.637 38.86C170.648 35.96 170.637 33.05 170.637 30.15C170.625 30.01 170.625 29.87 170.625 29.69Z" fill="white"/>
<path d="M322.642 33.92C322.572 33.99 322.548 34 322.548 34.01C322.56 35.8 322.502 37.59 322.618 39.37C322.688 40.5 323.528 41.29 324.73 41.78C325.29 42.01 325.85 42.1 326.468 42.09C327.518 42.07 328.568 42.09 329.665 42.09C329.665 43.48 329.665 44.85 329.665 46.23C328.277 46.23 326.888 46.24 325.5 46.22C325.092 46.21 324.683 46.15 324.298 46.07C322.058 45.61 320.39 44.48 319.165 42.84C318.22 41.57 317.835 40.16 317.835 38.67C317.835 37.24 317.835 35.81 317.835 34.39C317.835 34.26 317.835 34.13 317.835 33.96C317.065 33.96 316.33 33.96 315.56 33.96C315.56 32.53 315.56 31.15 315.56 29.72C316.307 29.72 317.042 29.72 317.835 29.72C317.835 29.54 317.835 29.4 317.835 29.26C317.835 27.35 317.847 25.44 317.823 23.53C317.823 23.18 317.94 23.07 318.348 23.08C319.585 23.1 320.822 23.1 322.058 23.08C322.42 23.07 322.537 23.16 322.537 23.48C322.525 25.4 322.525 27.32 322.525 29.24C322.525 29.38 322.525 29.52 322.525 29.7C324.928 29.7 327.273 29.7 329.653 29.7C329.653 31.12 329.653 32.51 329.653 33.92C327.32 33.92 324.963 33.92 322.642 33.92Z" fill="white"/>
<path d="M116.888 33.01C115.768 34.02 114.648 35.03 113.528 36.04C113.19 35.57 112.91 35.1 112.537 34.69C111.988 34.09 111.242 33.69 110.378 33.51C109.818 33.39 109.212 33.25 108.675 33.34C107.193 33.57 106.015 34.22 105.292 35.4C104.557 36.6 104.277 37.87 104.662 39.19C104.988 40.31 105.735 41.18 106.925 41.8C108.208 42.47 109.538 42.53 110.857 42.05C111.883 41.68 112.793 41.1 113.26 40.16C113.307 40.07 113.377 40 113.447 39.89C114.602 40.93 115.733 41.95 116.865 42.96C116.27 43.81 115.442 44.46 114.532 45.05C112.758 46.19 110.74 46.6 108.57 46.51C107.182 46.45 105.828 46.16 104.65 45.53C101.722 43.97 100.018 41.73 99.7733 38.75C99.6217 36.92 100.042 35.18 101.045 33.54C101.955 32.07 103.203 30.92 104.895 30.08C107.543 28.75 110.262 28.73 112.968 29.81C114.613 30.49 115.99 31.52 116.888 33.01Z" fill="white"/>
<path d="M292.273 29.71C292.32 29.7 292.332 29.69 292.355 29.69C293.008 29.61 293.51 29.68 293.848 30.28C294.117 30.76 294.56 31.17 294.875 31.55C295.703 31.14 296.473 30.71 297.29 30.36C298.433 29.88 299.658 29.67 300.942 29.69C302.073 29.71 303.217 29.7 304.348 29.69C304.582 29.69 304.71 29.73 304.71 29.96C304.698 31.22 304.698 32.48 304.698 33.74C304.698 33.79 304.675 33.83 304.663 33.92C304.488 33.92 304.302 33.92 304.127 33.92C302.738 33.94 301.338 33.89 299.962 33.99C298.282 34.11 297.173 35.4 296.987 36.71C296.952 36.97 296.952 37.24 296.952 37.5C296.952 40.24 296.952 42.97 296.952 45.71C296.952 45.87 296.952 46.02 296.952 46.2C295.388 46.2 293.848 46.2 292.273 46.2C292.273 40.73 292.273 35.23 292.273 29.71Z" fill="white"/>
<path d="M87.1617 46.24C85.5867 46.24 84.0467 46.24 82.4717 46.24C82.4717 40.73 82.4717 35.23 82.4717 29.71C84.035 29.71 85.5867 29.71 87.1617 29.71C87.1617 35.21 87.1617 40.71 87.1617 46.24Z" fill="white"/>
<path d="M220.313 29.69C221.888 29.69 223.428 29.69 225.003 29.69C225.003 35.2 225.003 40.7 225.003 46.22C223.452 46.22 221.9 46.22 220.313 46.22C220.313 40.73 220.313 35.23 220.313 29.69Z" fill="white"/>
<path d="M167.498 11.9201C167.58 11.7701 167.627 11.63 167.708 11.52C167.802 11.39 168 11.27 168.093 11.47C168.338 12.04 169.003 11.98 169.47 12.16C170.123 12.41 170.403 12.87 170.042 13.41C170.018 13.45 169.983 13.5 169.948 13.53C169.33 13.99 169.365 14.5501 169.435 15.2001C169.505 15.8201 169.4 16.47 169.272 17.08C169.12 17.78 169.353 18.25 170.112 18.52C170.333 18.6 170.555 18.67 170.777 18.74C171.687 18.98 172.06 19.5801 172.223 20.3201C172.293 20.6201 172.06 20.9001 171.745 20.9501C171.395 21.0101 171.115 20.85 171.092 20.58C171.033 19.88 170.38 19.84 169.832 19.68C169.33 19.54 168.805 19.4501 168.292 19.3201C168.047 19.2601 167.93 19.3 167.837 19.5C167.615 19.97 167.603 20.43 167.86 20.9C168.163 21.46 168.478 22.03 168.805 22.58C168.852 22.66 169.027 22.71 169.143 22.71C170.45 22.74 171.757 22.78 173.063 22.75C173.472 22.74 173.88 22.56 174.335 22.49C174.113 22.6 173.903 22.7501 173.67 22.8201C173.017 23.0301 172.328 22.93 171.652 22.91C170.602 22.87 169.552 22.9001 168.502 22.8901C168.373 22.8901 168.245 22.9 168.128 22.9C165.212 22.9 162.283 22.9 159.367 22.9C158.632 22.9 157.908 22.78 157.267 22.46C156.123 21.89 155.762 20.97 155.762 19.93C155.762 19.28 155.96 18.65 156.38 18.08C156.543 17.85 156.73 17.7201 157.022 17.8201C157.337 17.9201 157.278 18.1701 157.208 18.3801C157.068 18.7901 156.87 19.2 156.777 19.62C156.555 20.68 157.43 21.8 158.853 21.88C159.425 21.9101 159.997 21.91 160.557 21.87C160.965 21.84 161.163 21.6 161.14 21.21C161.117 20.73 161.117 20.25 161.187 19.77C161.373 18.44 162.097 17.3601 163.333 16.5101C164.138 15.9501 165.025 15.5301 165.97 15.2001C166.332 15.0801 166.425 14.9 166.448 14.58C166.507 13.81 166.495 13.0501 166.297 12.2901C166.238 12.0601 166.402 11.78 166.46 11.52C166.717 11.62 166.962 11.7201 167.218 11.8201C167.3 11.8301 167.382 11.8701 167.498 11.9201ZM166.857 22.09C166.635 21.41 166.437 20.76 166.192 20.02C166.075 20.21 165.982 20.3101 165.958 20.4201C165.877 20.8001 165.818 21.19 165.76 21.58C165.748 21.66 165.748 21.79 165.783 21.8C166.133 21.92 166.413 22.25 166.857 22.09Z" fill="white"/>
<path d="M87.99 25.19C87.9667 26.72 86.7067 27.93 84.8867 27.97C83.1367 28.01 81.69 26.8 81.6667 25.25C81.6434 23.81 82.9733 22.43 84.7583 22.39C86.5433 22.36 88.0017 23.72 87.99 25.19Z" fill="white"/>
<path d="M225.832 25.18C225.82 26.7 224.56 27.92 222.74 27.97C220.99 28.02 219.543 26.82 219.508 25.26C219.473 23.83 220.803 22.44 222.588 22.4C224.373 22.35 225.843 23.71 225.832 25.18Z" fill="white"/>
<path d="M185.115 3.52002C185.033 3.60002 184.952 3.69004 184.847 3.76004C183.843 4.48004 182.852 5.21004 181.848 5.92004C181.032 6.51004 180.192 7.08003 179.375 7.66003C179.165 7.81003 178.967 7.97003 178.757 8.12003C178.5 8.30003 178.29 8.21003 178.22 7.97003C178.127 7.68003 178.103 7.42004 178.488 7.20004C180.005 6.34004 181.51 5.45003 183.015 4.56003C183.528 4.26003 184.042 3.95003 184.555 3.66003C184.707 3.57003 184.882 3.51002 185.045 3.43002C185.068 3.47002 185.092 3.50002 185.115 3.52002Z" fill="white"/>
<path d="M175.502 20.19C175.525 19.93 175.583 19.68 175.583 19.42C175.572 18.73 175.397 18.08 175.035 17.46C174.603 16.72 174.148 15.98 173.705 15.24C173.378 14.7 173.378 14.13 173.46 13.56C173.577 12.77 173.903 12.04 174.522 11.43C174.58 11.37 174.662 11.33 174.767 11.25C174.487 11.71 174.16 12.1 173.985 12.53C173.565 13.55 173.483 14.54 174.183 15.56C174.883 16.56 175.525 17.63 175.712 18.82C175.782 19.26 175.665 19.73 175.63 20.18C175.595 20.2 175.548 20.2 175.502 20.19Z" fill="white"/>
<path d="M175.373 10.25C175.537 9.94997 175.653 9.65998 175.852 9.41998C176.132 9.06998 176.435 8.72997 176.773 8.40997C176.867 8.32997 177.123 8.29998 177.252 8.34998C177.578 8.47998 177.672 9.12997 177.298 9.30997C176.68 9.60997 176.062 9.91997 175.373 10.25Z" fill="white"/>
</svg>
