<svg width="50" height="50" fill="none" xmlns="http://www.w3.org/2000/svg"><g clip-path="url(#clip0_20_85)"><path d="M44.444 50H5.556A5.556 5.556 0 010 44.444V5.556A5.556 5.556 0 015.556 0h38.888A5.556 5.556 0 0150 5.556v38.888A5.556 5.556 0 0144.444 50z" fill="#000"/><path d="M38.417 18.77a15.28 15.28 0 01-3.24 4.97c-.02.02-.042.052-.062.073-1.584 1.614-3.688 3.114-6.47 4.312-.28.125-.551.23-.822.344a40.36 40.36 0 01-2.77 1.01c-7.334 2.375-11.324 1.531-14.46 9.646-.062.146-.114.302-.176.458 0-.198 0-.395.01-.593.073-4.47 1.219-13.875 15.094-17.115a34.232 34.232 0 003.344-.969c9.145-3.198 10.198-8.875 10.198-10.75.541 1.604.802 5.01-.646 8.615z" fill="#40C4FF"/><path d="M35.177 23.74c-.02.02-.042.052-.062.073-1.584 1.614-3.688 3.114-6.47 4.312-.28.125-.551.23-.822.344-.98.396-1.896.73-2.77 1.01-7.334 2.375-11.324 1.532-14.46 9.646-.062.146-.114.302-.176.459.02-.167.041-.344.073-.542.041-.281.093-.594.166-.927 0-.01 0-.032.01-.052.594-3.032 2.23-7.75 7.042-9.938 2.917-1.323 11.448-3.5 17.47-4.385z" fill="#FF4081"/><path d="M25.052 29.48c-7.333 2.374-11.5 1.989-14.635 10.104l.073-.542-.063-.052c.073-.271.146-.563.23-.875 0-.01 0-.032.01-.052.885-3.157 2.854-7.948 10.166-8.896a10.434 10.434 0 014.22.312z" fill="#FFB74D"/><path d="M38.417 18.77c-2.459 1.876-8.51 5.168-19.667 7.272 1.854-1.157 6.385-2.313 10.115-5.136 9.145-3.198 10.198-8.875 10.198-10.75.541 1.604.802 5.01-.646 8.615z" fill="#7C4DFF"/><path d="M35.115 23.813c-1.678 1.02-4.167 2.166-8.438 2.979-.531.104-1.094.198-1.677.291-4.188.646-7.98 1.886-10.75 4.834-.396.416-.76.875-1.115 1.364-1.177 1.636-2.104 3.698-2.718 6.302 0-.198 0-.395.01-.593.146-4.344 1.99-9.334 7.625-12.771 1.636-1 3.583-1.865 5.906-2.542a33.21 33.21 0 013.125-.76c5.136-1.01 8.094-2.907 9.782-4.959 2.687-3.24 2.197-6.843 2.197-7.802.792 2.365.98 8.615-3.947 13.656z" fill="#E040FB"/><path d="M28.714 22.544c-.52.134-1.058.26-1.63.373a33.482 33.482 0 00-3.126.76c-2.323.677-4.27 1.542-5.906 2.542-3.114 2.77-4.51 5.5-4.917 7.062.355-.49.72-.947 1.115-1.364 2.327-2.475 5.378-3.739 8.774-4.465 1.76-1.056 4.142-2.691 5.69-4.908z" fill="#FF80AB"/><path d="M23.958 23.677v.021c-1.77.76-7.468 3.969-9.708 8.219-1.708 1.823-3.042 4.291-3.833 7.666 0-.197 0-.395.01-.593.188-5.604 3.198-12.282 13.531-15.313z" fill="#FFE0B2"/></g><defs><clipPath id="clip0_20_85"><path fill="#fff" d="M0 0h50v50H0z"/></clipPath></defs></svg>