<svg width="50" height="50" fill="none" xmlns="http://www.w3.org/2000/svg"><g clip-path="url(#clip0_20_78)"><rect width="50" height="50" rx="25" fill="#000"/><path d="M22.896 27.22C26.515 19.667 32.57 14.866 39.7 11c-.723 4.395-11.878 15.18-16.803 16.22z" fill="#F5F5F5" stroke="#1D1D1B" stroke-width=".31" stroke-miterlimit="10"/><path d="M39.752 14.46c-1.306 2.153-2.541 4.341-3.936 6.442-2.488 3.742-5.471 7.025-9.019 9.796-.741.582-1.5.9-2.471.865-.794-.018-1.606.159-2.4.247-.177-1.006.353-2.33 1.112-2.7 6.742-3.301 12.02-8.261 16.202-14.421l.265-.37.247.158v-.017z" fill="url(#paint0_linear_20_78)" stroke="#1D1D1B" stroke-width=".31" stroke-miterlimit="10"/><path d="M11 38.2c.088-.248.141-.495.247-.725.83-1.959 1.677-3.918 2.507-5.895.282-.67.723-1.041 1.482-1.13 1.73-.193 3.442-.458 5.295-.723-.23.953-.441 1.818-.635 2.683-.106.477-.283.935-.283 1.412 0 1.588-.918 2.312-2.294 2.824-1.853.688-3.636 1.553-5.436 2.33l-.16-.177c.212-.247.407-.494.636-.723.9-.883 1.783-1.8 2.736-2.613.423-.37 1.024-.511 1.482-.83.283-.193.671-.617.6-.811-.105-.353-.476-.741-.811-.865-.177-.07-.618.335-.812.618-.318.423-.477 1.006-.847 1.394-1.112 1.165-2.295 2.277-3.46 3.39l-.23-.142-.017-.018z" fill="#FFE0B2" stroke="#1D1D1B" stroke-width=".31" stroke-miterlimit="10"/><path d="M36.646 11.035c-3.9 2.4-7.413 5.26-10.467 8.666-.247.265-.53.512-.688.83-.688 1.253-2.118 1.394-3.107 2.189-.9.741-1.835 1.482-2.63 2.33-.529.564-.917.494-1.553.017C22.967 18.52 29.462 14.3 36.664 11.035h-.018z" fill="url(#paint1_linear_20_78)" stroke="#1D1D1B" stroke-width=".31" stroke-miterlimit="10"/><path d="M49.67 24.99C49.67 11.359 38.62.309 24.99.309 11.359.309.309 11.359.309 24.989c0 13.632 11.05 24.682 24.68 24.682 13.632 0 24.682-11.05 24.682-24.681z" stroke="#1D1D1B" stroke-width=".31" stroke-miterlimit="10"/></g><rect x="1.5" y="1.5" width="47" height="47" rx="23.5" stroke="#000" stroke-width="3" stroke-linejoin="round"/><defs><linearGradient id="paint0_linear_20_78" x1="36.5" y1="20.5" x2="19.5" y2="34" gradientUnits="userSpaceOnUse"><stop stop-color="#FF80AB"/><stop offset="1" stop-color="#83FF80"/></linearGradient><linearGradient id="paint1_linear_20_78" x1="22" y1="25" x2="38.5" y2="11" gradientUnits="userSpaceOnUse"><stop stop-color="#FF80AB"/><stop offset="1" stop-color="#528FE6"/></linearGradient><clipPath id="clip0_20_78"><rect width="50" height="50" rx="25" fill="#fff"/></clipPath></defs></svg>