<svg width="46" height="32" viewBox="0 0 46 32" fill="none" xmlns="http://www.w3.org/2000/svg">
<path d="M44.0592 21.316C43.794 21.2478 43.5179 21.2327 43.2469 21.2715C42.9758 21.3103 42.7151 21.4023 42.4797 21.5422C42.2443 21.6821 42.0389 21.8672 41.8753 22.0867C41.7117 22.3063 41.593 22.556 41.5262 22.8215C41.1448 24.2931 40.2399 25.5751 38.981 26.4273C37.7221 27.2794 36.1957 27.6433 34.6877 27.4506C33.1798 27.258 31.7938 26.522 30.7896 25.3807C29.7854 24.2394 29.2319 22.7711 29.2327 21.2509V19.1676H43.816C44.0897 19.1677 44.3606 19.1138 44.6134 19.0091C44.8662 18.9045 45.0959 18.751 45.2893 18.5576C45.4828 18.3641 45.6363 18.1344 45.7409 17.8816C45.8456 17.6288 45.8994 17.3579 45.8994 17.0843C45.8994 15.7163 45.6299 14.3618 45.1065 13.098C44.583 11.8342 43.8157 10.6858 42.8484 9.71856C41.8811 8.75128 40.7328 7.984 39.469 7.46051C38.2052 6.93702 36.8506 6.66759 35.4827 6.66759C34.1148 6.66759 32.7602 6.93702 31.4964 7.46051C30.2326 7.984 29.0843 8.75128 28.117 9.71856C27.1497 10.6858 26.3824 11.8342 25.859 13.098C25.3355 14.3618 25.066 15.7163 25.066 17.0843V21.2509C25.0652 23.7867 25.9897 26.2356 27.666 28.1383C29.3423 30.0409 31.6553 31.2665 34.171 31.5851C36.6867 31.9037 39.2322 31.2934 41.3299 29.8687C43.4276 28.444 44.9334 26.3029 45.5647 23.8469C45.6322 23.5819 45.6467 23.3062 45.6076 23.0355C45.5684 22.7648 45.4763 22.5045 45.3365 22.2695C45.1967 22.0344 45.0119 21.8292 44.7927 21.6656C44.5735 21.502 44.3243 21.3832 44.0592 21.316V21.316ZM35.4827 10.8343C37.1356 10.8349 38.7214 11.4878 39.8955 12.6511C40.5476 13.3178 41.0446 14.1202 41.3511 15.0009H29.6167C30.0447 13.7858 30.8383 12.733 31.8886 11.9869C32.9389 11.2409 34.1944 10.8382 35.4827 10.8343V10.8343ZM31.316 4.58426H39.6494C40.2019 4.58426 40.7318 4.36476 41.1225 3.97406C41.5132 3.58336 41.7327 3.05346 41.7327 2.50092C41.7327 1.94839 41.5132 1.41848 41.1225 1.02778C40.7318 0.637082 40.2019 0.417589 39.6494 0.417589H31.316C30.7635 0.417589 30.2336 0.637082 29.8429 1.02778C29.4522 1.41848 29.2327 1.94839 29.2327 2.50092C29.2327 3.05346 29.4522 3.58336 29.8429 3.97406C30.2336 4.36476 30.7635 4.58426 31.316 4.58426V4.58426ZM18.6452 14.4117C19.7571 13.229 20.498 11.7465 20.7764 10.1473C21.0548 8.54818 20.8585 6.90248 20.2118 5.41367C19.565 3.92486 18.4962 2.65821 17.1373 1.77028C15.7785 0.882355 14.1893 0.412081 12.566 0.417589H2.14937C1.87577 0.417515 1.60482 0.471351 1.35203 0.576022C1.09923 0.680694 0.86954 0.834148 0.676069 1.02762C0.482599 1.22109 0.329145 1.45078 0.224474 1.70358C0.119803 1.95637 0.0659662 2.22731 0.0660401 2.50092V29.5843C0.0659689 29.8579 0.119807 30.1288 0.22448 30.3816C0.329152 30.6344 0.482606 30.8641 0.676076 31.0576C0.869545 31.251 1.09924 31.4045 1.35203 31.5091C1.60483 31.6138 1.87577 31.6677 2.14937 31.6676H13.6077C15.6351 31.6713 17.6088 31.0164 19.2319 29.8017C20.8551 28.5869 22.0399 26.8779 22.608 24.9318C23.1761 22.9856 23.0969 20.9076 22.3822 19.0104C21.6676 17.1132 20.3561 15.4993 18.6452 14.4117V14.4117ZM4.23271 4.58426H12.566C13.6711 4.58426 14.7309 5.02324 15.5123 5.80464C16.2937 6.58605 16.7327 7.64585 16.7327 8.75092C16.7327 9.85599 16.2937 10.9158 15.5123 11.6972C14.7309 12.4786 13.6711 12.9176 12.566 12.9176H4.23271V4.58426ZM13.6077 27.5009H4.23271V17.0843H13.6077C14.989 17.0843 16.3138 17.633 17.2906 18.6097C18.2673 19.5865 18.816 20.9113 18.816 22.2926C18.816 23.6739 18.2673 24.9987 17.2906 25.9754C16.3138 26.9522 14.989 27.5009 13.6077 27.5009Z" fill="black"/>
</svg>
