<svg width="42" height="42" viewBox="0 0 42 42" fill="none" xmlns="http://www.w3.org/2000/svg">
<path d="M21 0.166656C16.8796 0.166656 12.8516 1.38851 9.42562 3.67771C5.9996 5.9669 3.32933 9.22062 1.75251 13.0274C0.175683 16.8342 -0.236886 21.0231 0.566973 25.0644C1.37083 29.1056 3.35501 32.8178 6.26861 35.7314C9.1822 38.645 12.8943 40.6292 16.9356 41.433C20.9769 42.2369 25.1658 41.8243 28.9726 40.2475C32.7794 38.6707 36.0331 36.0004 38.3223 32.5744C40.6115 29.1483 41.8333 25.1204 41.8333 21C41.8333 18.2641 41.2945 15.555 40.2475 13.0274C39.2005 10.4998 37.6659 8.20315 35.7314 6.2686C33.7968 4.33404 31.5002 2.79947 28.9726 1.7525C26.445 0.705527 23.7359 0.166656 21 0.166656ZM21 4.33332C25.2807 4.33162 29.3954 5.98943 32.4792 8.95832C29.2959 10.8254 25.9227 12.3479 22.4167 13.5C20.6719 10.4934 18.6714 7.64257 16.4375 4.97916C17.9208 4.55207 19.4565 4.33468 21 4.33332ZM12.4375 6.72916C14.6202 9.22604 16.5791 11.91 18.2917 14.75C14.2023 15.7654 10.0052 16.2831 5.79167 16.2917H5.04167C6.22334 12.2909 8.86237 8.87875 12.4375 6.72916ZM8.5 32.0625C5.78907 29.0182 4.30433 25.0762 4.33333 21C4.33333 20.7917 4.33333 20.5833 4.33333 20.3958H5.75C10.682 20.3517 15.5862 19.6511 20.3333 18.3125C21 19.5833 21.625 20.8958 22.2292 22.25C18.9823 23.3946 15.9583 25.0934 13.2917 27.2708L12.6667 27.7708C11.1815 29.1046 9.78935 30.5385 8.5 32.0625ZM21 37.6667C17.6794 37.674 14.4337 36.6793 11.6875 34.8125C12.7018 33.6491 13.7872 32.5498 14.9375 31.5208L15.6042 30.9583C18.0691 28.8852 20.8937 27.2822 23.9375 26.2292C25.1903 29.6166 26.1657 33.1003 26.8542 36.6458C24.9788 37.3306 22.9965 37.6762 21 37.6667ZM30.6458 34.5625C29.9642 31.4095 29.0734 28.3054 27.9792 25.2708H28.6875C28.7696 25.2505 28.8554 25.2505 28.9375 25.2708H29.1667H29.375H30.375C32.5674 25.2771 34.7433 25.6503 36.8125 26.375C35.6757 29.6882 33.5164 32.5551 30.6458 34.5625ZM30.375 21C29.9375 21 29.5 21 29.0833 21C28.8136 20.966 28.5406 20.966 28.2708 21C27.7046 21.0348 27.141 21.1043 26.5833 21.2083H26.375C25.7708 19.8125 25.1458 18.4583 24.4583 17.0417C28.1888 15.7605 31.7717 14.0843 35.1458 12.0417C36.8197 14.7278 37.694 17.8351 37.6667 21C37.6667 21.3542 37.6667 21.7083 37.6667 22.0625C35.3056 21.3338 32.8459 20.9754 30.375 21Z" fill="black"/>
</svg>
