<svg width="42" height="42" viewBox="0 0 42 42" fill="none" xmlns="http://www.w3.org/2000/svg">
<path d="M21 10.5833C18.9398 10.5833 16.9258 11.1942 15.2128 12.3388C13.4998 13.4834 12.1647 15.1103 11.3763 17.0137C10.5878 18.9171 10.3816 21.0115 10.7835 23.0322C11.1854 25.0528 12.1775 26.9089 13.6343 28.3657C15.0911 29.8225 16.9472 30.8146 18.9678 31.2165C20.9884 31.6184 23.0829 31.4121 24.9863 30.6237C26.8897 29.8353 28.5165 28.5002 29.6611 26.7872C30.8057 25.0742 31.4167 23.0602 31.4167 21C31.4167 18.2373 30.3192 15.5878 28.3657 13.6343C26.4122 11.6808 23.7627 10.5833 21 10.5833V10.5833ZM21 27.25C19.7639 27.25 18.5555 26.8834 17.5277 26.1967C16.4999 25.5099 15.6988 24.5338 15.2258 23.3918C14.7527 22.2497 14.6289 20.9931 14.8701 19.7807C15.1112 18.5683 15.7065 17.4546 16.5806 16.5806C17.4547 15.7065 18.5683 15.1112 19.7807 14.8701C20.9931 14.6289 22.2497 14.7527 23.3918 15.2257C24.5338 15.6988 25.5099 16.4999 26.1967 17.5277C26.8834 18.5555 27.25 19.7639 27.25 21C27.25 22.6576 26.5915 24.2473 25.4194 25.4194C24.2473 26.5915 22.6576 27.25 21 27.25ZM31.4167 8.49999C31.0046 8.49999 30.6018 8.62218 30.2592 8.85109C29.9166 9.08001 29.6496 9.40539 29.4919 9.78607C29.3342 10.1667 29.293 10.5856 29.3734 10.9898C29.4537 11.3939 29.6522 11.7651 29.9435 12.0565C30.2349 12.3478 30.6061 12.5462 31.0102 12.6266C31.4144 12.707 31.8332 12.6658 32.2139 12.5081C32.5946 12.3504 32.92 12.0834 33.1489 11.7408C33.3778 11.3982 33.5 10.9954 33.5 10.5833C33.5 10.0308 33.2805 9.50088 32.8898 9.11018C32.4991 8.71948 31.9692 8.49999 31.4167 8.49999ZM41.7083 13.1667C41.6738 11.3863 41.3356 9.62488 40.7083 7.95832C40.1266 6.44179 39.2325 5.06456 38.084 3.91603C36.9354 2.7675 35.5582 1.87336 34.0417 1.29166C32.3751 0.664363 30.6137 0.326172 28.8333 0.291656C26.8125 0.166656 26.1458 0.166656 21 0.166656C15.8542 0.166656 15.1875 0.166656 13.1667 0.291656C11.3863 0.326172 9.62489 0.664363 7.95833 1.29166C6.4418 1.87336 5.06457 2.7675 3.91604 3.91603C2.76751 5.06456 1.87337 6.44179 1.29167 7.95832C0.664373 9.62488 0.326182 11.3863 0.291666 13.1667C0.166666 15.2083 0.166666 15.875 0.166666 21C0.166666 26.125 0.166666 26.7917 0.291666 28.8333C0.326182 30.6137 0.664373 32.3751 1.29167 34.0417C1.87337 35.5582 2.76751 36.9354 3.91604 38.084C5.06457 39.2325 6.4418 40.1266 7.95833 40.7083C9.62489 41.3356 11.3863 41.6738 13.1667 41.7083C15.25 41.7083 15.8542 41.8333 21 41.8333C26.1458 41.8333 26.8125 41.8333 28.8333 41.7083C30.6137 41.6738 32.3751 41.3356 34.0417 40.7083C35.5582 40.1266 36.9354 39.2325 38.084 38.084C39.2325 36.9354 40.1266 35.5582 40.7083 34.0417C41.3356 32.3751 41.6738 30.6137 41.7083 28.8333C41.7083 26.75 41.8333 26.125 41.8333 21C41.8333 15.875 41.8333 15.2083 41.7083 13.1667ZM37.5417 28.6458C37.5051 29.9679 37.259 31.2759 36.8125 32.5208C36.4433 33.5049 35.8598 34.3944 35.1042 35.125C34.378 35.8809 33.4866 36.4585 32.5 36.8125C31.2521 37.2773 29.9354 37.5308 28.6042 37.5625C26.6458 37.5625 26.0417 37.6667 20.9792 37.6667C15.9167 37.6667 15.3333 37.6667 13.375 37.6667C12.0459 37.6323 10.7307 37.3862 9.47917 36.9375C8.49512 36.5683 7.60556 35.9847 6.875 35.2292C6.11907 34.503 5.5415 33.6116 5.1875 32.625C4.72459 31.3838 4.47114 30.0743 4.4375 28.75C4.4375 26.6667 4.4375 26.1458 4.4375 21.1042C4.4375 16.0625 4.4375 15.4583 4.4375 13.4583C4.47341 12.1275 4.72675 10.8115 5.1875 9.56249C5.54699 8.58464 6.12403 7.70128 6.875 6.97916C7.6012 6.22323 8.49252 5.64565 9.47917 5.29166C10.7271 4.82686 12.0437 4.57338 13.375 4.54166C15.3333 4.33332 15.9375 4.33332 21 4.33332C26.0625 4.33332 26.6667 4.33332 28.625 4.33332C29.9628 4.36734 31.2859 4.62071 32.5417 5.08332C33.5195 5.44282 34.4029 6.01985 35.125 6.77082C35.8809 7.49702 36.4585 8.38834 36.8125 9.37499C37.3225 10.6428 37.6114 11.9887 37.6667 13.3542C37.6667 15.4375 37.7708 15.9583 37.7708 21C37.7708 26.0417 37.6667 26.6458 37.6667 28.6458H37.5417Z" fill="black"/>
</svg>
