<svg width="50" height="50" fill="none" xmlns="http://www.w3.org/2000/svg"><path d="M46.06 31.316a2.079 2.079 0 00-2.534 1.506 6.247 6.247 0 01-12.293-1.571v-2.084h14.583a2.082 2.082 0 002.083-2.083 10.418 10.418 0 00-14.403-9.624 10.417 10.417 0 00-6.43 9.624v4.167a10.414 10.414 0 0020.499 2.596 2.082 2.082 0 00-1.506-2.531zm-8.577-10.482c1.653 0 3.238.654 4.413 1.817a6.342 6.342 0 011.455 2.35H31.617a6.239 6.239 0 015.866-4.167zm-4.167-6.25h8.333a2.083 2.083 0 000-4.166h-8.333a2.083 2.083 0 000 4.166zm-12.67 9.828a8.304 8.304 0 00-6.08-13.994H4.149A2.084 2.084 0 002.066 12.5v27.083a2.083 2.083 0 002.083 2.083h11.459a9.358 9.358 0 005.037-17.255zM6.232 14.584h8.333a4.167 4.167 0 110 8.334H6.233v-8.334zm9.375 22.917H6.233V27.084h9.375a5.208 5.208 0 110 10.417z" fill="#000"/></svg>