<svg width="350" height="50" fill="none" xmlns="http://www.w3.org/2000/svg"><path d="M210.957 16.25c-1.085.98-2.334 1.68-3.955 1.67-1.132 0-1.552-.27-2.1-.86-.432.21-.84.44-1.284.62-.641.26-1.318.33-2.018.18-.735-.16-1.178-.84-1.237-1.42-.023-.3-.023-.6-.011-.9 0-.2-.082-.28-.327-.28-.14 0-.28-.07-.408-.05-.129.01-.304.07-.362.15-.735 1.16-1.925 1.87-3.22 2.5a9.695 9.695 0 01-3.22.91c-1.377.15-2.765.13-4.002-.52-.863-.45-1.33-1.17-1.68-1.97-.478-1.12-.536-2.3-.396-3.46.128-.99.443-1.97.781-2.93.362-1.04 1.015-1.97 1.797-2.82 1.342-1.46 3.022-2.41 5.227-2.62 1.026-.1 2.03-.09 3.01.16.303.08.606.19.863.34.572.33.723.94.42 1.52-.303.57-.735.71-1.54.61-.572-.07-.828-.36-.91-.79-.035-.19.047-.39.082-.58.291.08.583.16.863.26.058.02.07.14.105.23.07.01.14.03.198.01.117-.03.222-.08.339-.13-.059-.1-.094-.25-.187-.28-.315-.11-.653-.23-.992-.24-1.143-.06-2.286-.02-3.371.35-1.132.38-2.17.92-2.917 1.75-1.248 1.37-1.972 2.93-2.228 4.65-.175 1.15-.152 2.27.338 3.37s1.318 1.43 2.52 1.47a9.545 9.545 0 004.153-.74c.77-.32 1.552-.67 2.182-1.33-.303-.04-.525-.1-.747-.1-1.481-.01-2.975 0-4.456 0h-1.307c-.303 0-.56-.06-.572-.38-.023-.32-.058-.64-.081-.96-.012-.33.256-.44.571-.44 1.715-.03 3.43-.13 5.134-.05 1.563.07 3.115.31 4.666.48.245.03.432.03.642-.17.595-.57 1.26-1.05 2.182-1.23 1.096-.22 2.123-.07 3.021.44.56.32 1.015.93.525 1.6-.233.32-.338.71-.466 1.08-.094.28.186.54.56.51 1.236-.12 2.321-.47 2.87-1.53.14-.26.233-.5.21-.83-.105-1.69-.222-3.39-.164-5.09.059-1.64.362-3.28 1.167-4.8.198-.37.525-.75.91-.98.233-.14.758-.09 1.062.04.921.38 1.248 1.11 1.295 1.94.035.75.093 1.51.081 2.26-.035 1.34-.28 2.66-.793 3.94a47.152 47.152 0 01-1.33 3c-.163.33-.117.6.023.88.245.51.525 1.01.782 1.52.198.39.583.28.84.14.782-.41 1.563-.85 2.147-1.49.373-.4.781-.78 1.12-1.2.116-.15.105-.41.093-.62-.023-.68-.082-1.36-.093-2.04-.035-2.28.28-4.53 1.131-6.71.082-.22.234-.44.397-.63.397-.45.898-.49 1.715-.21.572.19.875.57 1.167 1 .63.97.875 2.01.84 3.11-.07 1.94-1.085 3.59-2.194 5.21-.256.37-.525.74-.781 1.11a.343.343 0 00-.047.26c.315.97 1.05 1.68 2.042 2.18.233.12.63.09.91.01 1.085-.29 2.1-.71 2.963-1.36.292-.22.478-.43.42-.85-.163-1.1-.07-2.21.63-3.18.665-.92 1.47-.99 2.683-.54.7.26.992 1.13.724 1.93-.257.77-.724 1.45-1.272 2.09-.14.16-.28.32-.397.49-.128.17.222.54.514.51.408-.05.84-.1 1.201-.26 1.225-.51 2.357-1.16 3.209-2.09.233-.26.396-.57.56-.87.291-.57 1.108-.65 1.61-.17.315.31.28.68.361 1.03.047.19.059.39.094.61.513-.5.968-.99 1.493-1.43.525-.43 1.12-.81 1.703-1.18.35-.23.689 0 1.015.11.047.02.094.05.14.07.537.28.607.54.199.95-.502.49-.852 1.05-.957 1.7-.047.31-.012.64.082.94.035.12.303.27.466.28.969.03 1.867-.12 2.73-.56.747-.38 1.494-.75 2.042-1.33a7.37 7.37 0 001.038-1.33c.175-.3.152-.69.257-1.03.222-.69.548-.84 1.353-.63.689.18.992.64.735 1.19-.035.08-.046.17-.093.23-.49.69-.058 1.25.42 1.73 1.155 1.14 2.52 2.01 4.293 2.33.409.07.782.23 1.004.61.14.25.186.46.07.7a14.67 14.67 0 01-2.007 3.1c-.933 1.1-2.123 1.97-3.407 2.76-1.551.94-3.29 1.45-5.086 1.89-1.167.29-2.334.36-3.524.33-.571-.01-1.166-.1-1.598-.47-.268-.23-.572-.54-.63-.84-.093-.58-.128-1.2.012-1.76.151-.59.7-.98 1.353-1.27 1.132-.51 2.345-.78 3.593-.96 1.435-.21 2.882-.36 4.329-.51 1.026-.1 2.053-.15 3.08-.23.093-.01.221-.05.268-.12.42-.51.828-1.03 1.26-1.57-2.123-.67-3.862-1.66-5.017-3.38-.478.42-.91.87-1.423 1.25-1.12.82-2.322 1.55-3.838 1.7-.642.07-1.319.03-1.949-.08-.886-.16-1.621-1.06-1.645-1.87v-.4c-.035-.01-.081-.03-.116-.04-.304.56-.654 1.11-.887 1.7-.257.64-.747 1.09-1.377 1.44-.28.15-.536.08-.606-.2-.129-.45-.21-.9-.28-1.36-.059-.39-.059-.78-.094-1.18-.011-.07-.058-.13-.105-.22-.723.52-1.388 1.08-2.146 1.54-1.039.63-2.147 1.16-3.489 1.11-.711-.03-1.19-.4-1.61-.86-.058-.07-.116-.13-.116-.14-1.004.55-1.949 1.16-2.987 1.6-.957.4-2.042.44-3.022.03-1.178-.5-2.006-1.31-2.496-2.37-.012-.03-.047-.06-.024-.04-.886.68-1.761 1.37-2.671 2.04-.514.38-1.085.67-1.785.74-1.132.11-1.785-.45-2.287-1.2-.21-.25-.373-.59-.548-.93zm8.12-4.93c.046.01.093.03.14.04.455-.92.945-1.83 1.341-2.77.292-.68.315-1.4.105-2.1-.14-.48-.186-1.02-.746-1.38-.735 2.04-.934 4.11-.84 6.21zm-16.345 4.79c.058-.02.21-.03.291-.1.56-.48 1.109-.97 1.657-1.46.28-.25.502-.54.233-.86-.291-.35-.711-.18-1.085-.09a.841.841 0 00-.221.09c-.782.45-1.085 1.17-1.4 1.88-.129.28.128.53.525.54zm9.928-11.47c-.828 1.94-.933 3.96-.805 6 .817-1.95 1.19-3.94.805-6zm36.038 15.66c-.023-.04-.035-.08-.058-.12-2.345.76-4.702 1.53-7.047 2.29.012.03.024.06.047.09 2.625-.12 4.947-.94 7.058-2.26zm-20.615-8.91c-.105.07-.42.16-.501.33a4.23 4.23 0 00-.362 1.24c-.023.16.175.41.35.5.268.13.525-.03.642-.25.21-.41.396-.84.548-1.27.093-.3-.198-.57-.677-.55zm50.447 34.84h-4.947v-4.42h-9.951v4.41h-4.959V33.14c0-1.66.42-3.22 1.389-4.68 1.015-1.52 2.403-2.67 4.223-3.48 2.648-1.18 5.355-1.21 8.027-.26 2.065.73 3.686 1.98 4.806 3.69 1.027 1.56 1.424 3.21 1.412 4.97-.012 4.13 0 8.26 0 12.39v.46zm-14.91-8.85h9.928c0-1.61.035-3.2-.011-4.78-.035-1.14-.619-2.13-1.575-2.9-1.4-1.13-3.092-1.44-4.912-.94-1.89.52-2.987 1.72-3.313 3.36-.164.81-.094 1.65-.117 2.47-.012.93 0 1.85 0 2.79zM39.247 46.25c-1.844 0-3.617.01-5.39-.01-.14 0-.327-.15-.409-.28-.991-1.61-1.971-3.23-2.951-4.84-.759-1.25-1.529-2.51-2.334-3.82-.373.42-.711.81-1.038 1.2-.093.11-.163.25-.268.36-.782.92-1.575 1.84-2.345 2.77a.75.75 0 00-.164.46c-.011 1.25-.011 2.5-.011 3.75v.4h-4.935c-.012-.13-.024-.25-.024-.37 0-7.12 0-14.24-.011-21.36 0-.32.081-.43.478-.43 1.33.02 2.672.01 4.002.01h.455v10.96c.035.01.07.02.093.03.467-.55.933-1.09 1.4-1.64.058-.07.093-.15.152-.21.851-1 1.703-1.99 2.543-3l2.905-3.48c.677-.81 1.33-1.63 2.007-2.43.093-.11.28-.22.42-.22 1.715-.01 3.43-.01 5.133-.01.047 0 .105.02.187.03-.257.33-.479.64-.724.94-.793.94-1.61 1.88-2.403 2.82-1.027 1.21-2.042 2.43-3.068 3.64-.467.55-.922 1.11-1.4 1.66-.14.16-.187.29-.07.48.933 1.49 1.855 2.98 2.776 4.48 1.097 1.78 2.194 3.56 3.279 5.34.606.91 1.131 1.81 1.715 2.77zM202.02 30.72v-7.15c0-.48 0-.48.548-.48 1.26 0 2.532.01 3.792 0 .28 0 .397.06.397.32-.012 7.56-.012 15.13-.012 22.69 0 .04-.012.07-.023.16-.327 0-.654.02-.98-.01-.105-.01-.222-.12-.304-.21-.548-.67-1.085-1.34-1.621-2.01-.759.49-1.435 1.03-2.205 1.41-.805.39-1.692.73-2.59.92-2.205.48-4.352.16-6.289-.82-2.03-1.02-3.476-2.51-4.246-4.43-1.004-2.53-.899-5.02.478-7.45.875-1.54 2.182-2.72 3.932-3.57 2.158-1.05 4.398-1.24 6.766-.68.945.21 1.634.73 2.357 1.31zm-.012 7.45c.024-1.29-.385-2.18-1.015-3.04-.735-.97-1.796-1.47-3.033-1.78-.653-.16-1.307-.04-1.96.14-1.353.37-2.345 1.06-2.882 2.19-.676 1.42-.688 2.83.07 4.25.549 1.03 1.435 1.75 2.602 2.16 1.19.42 2.392.35 3.558-.28 1.727-.91 2.52-2.24 2.66-3.64zm-136.091-6.5c.56-.6 1.073-1.18 1.621-1.74.105-.11.304-.2.479-.22.256-.04.525-.01.816-.01v16.49c-.84.21-1.271 0-1.785-.75-.338-.49-.746-.95-1.12-1.43-.77.5-1.458 1-2.216 1.42-.514.29-1.085.5-1.669.68-2.566.78-5.063.53-7.396-.58-2.439-1.17-3.862-3.04-4.434-5.37-.466-1.94-.396-3.87.409-5.74.396-.91.968-1.74 1.691-2.51.724-.77 1.599-1.33 2.579-1.81 2.59-1.28 5.273-1.38 7.956-.29.899.36 1.669.95 2.485 1.45.199.11.362.24.584.41zm-1.797 6.42c-.012-1.24-.408-2.11-1.027-2.94-.746-1-1.831-1.55-3.103-1.79-1.412-.27-2.625.25-3.71.99a2.9 2.9 0 00-.665.65c-.922 1.29-1.062 2.69-.735 4.13.303 1.33 1.167 2.35 2.613 2.9 1.33.5 2.684.52 4.002-.2 1.727-.96 2.497-2.31 2.625-3.74zm69.708-7.65c.444-.24.77-.49 1.155-.63 1.342-.51 2.754-.53 4.165-.27 1.61.29 2.987.99 4.095 2 1.505 1.37 2.38 3.03 2.415 4.93.047 3.21.024 6.41.024 9.62 0 .05-.012.09-.024.15h-4.69c-.011-.13-.023-.25-.023-.37 0-2.92-.035-5.84.012-8.75.011-.91-.21-1.71-.875-2.41-1.435-1.5-4.305-1.39-5.577.23-.478.62-.688 1.32-.677 2.08.012 2.93.012 5.86.012 8.79v.42h-4.69a3.638 3.638 0 01-.023-.37v-22.3c0-.48 0-.48.56-.48h3.581c.572 0 .572 0 .572.51v6.38c-.012.12-.012.25-.012.47zm36.797-.75h4.678v16.55c-.315 0-.641.02-.956-.01-.105-.01-.234-.11-.304-.2-.455-.56-.898-1.12-1.365-1.7-.513.33-1.015.62-1.47.95-.921.66-1.995 1.01-3.15 1.17-1.913.26-3.745-.05-5.366-.95-2.229-1.24-3.465-3.05-3.78-5.3-.105-.75-.117-1.51-.117-2.26-.012-2.58 0-5.16 0-7.74v-.49h4.69v8.96c0 .97.198 1.88.968 2.65 1.155 1.16 2.87 1.34 4.014.74 1.365-.72 2.17-1.79 2.17-3.2.011-2.9 0-5.81 0-8.71-.012-.14-.012-.28-.012-.46zm152.017 4.23c-.07.07-.094.08-.094.09.012 1.79-.046 3.58.07 5.36.07 1.13.91 1.92 2.112 2.41.56.23 1.12.32 1.738.31 1.05-.02 2.1 0 3.197 0v4.14c-1.388 0-2.777.01-4.165-.01a6.777 6.777 0 01-1.202-.15c-2.24-.46-3.908-1.59-5.133-3.23-.945-1.27-1.33-2.68-1.33-4.17v-4.71h-2.275v-4.24h2.275v-.46c0-1.91.012-3.82-.012-5.73 0-.35.117-.46.525-.45 1.237.02 2.474.02 3.71 0 .362-.01.479.08.479.4-.012 1.92-.012 3.84-.012 5.76v.46h7.128v4.22h-7.011zm-205.754-.91l-3.36 3.03c-.338-.47-.618-.94-.991-1.35-.549-.6-1.295-1-2.159-1.18-.56-.12-1.166-.26-1.703-.17-1.482.23-2.66.88-3.383 2.06-.735 1.2-1.015 2.47-.63 3.79.326 1.12 1.073 1.99 2.263 2.61 1.283.67 2.613.73 3.932.25 1.026-.37 1.936-.95 2.403-1.89.047-.09.117-.16.187-.27 1.155 1.04 2.286 2.06 3.418 3.07-.595.85-1.423 1.5-2.333 2.09-1.774 1.14-3.792 1.55-5.962 1.46-1.388-.06-2.742-.35-3.92-.98-2.928-1.56-4.632-3.8-4.877-6.78-.151-1.83.269-3.57 1.272-5.21.91-1.47 2.158-2.62 3.85-3.46 2.648-1.33 5.367-1.35 8.073-.27 1.645.68 3.022 1.71 3.92 3.2zm175.385-3.3c.047-.01.059-.02.082-.02.653-.08 1.155-.01 1.493.59.269.48.712.89 1.027 1.27.828-.41 1.598-.84 2.415-1.19 1.143-.48 2.368-.69 3.652-.67 1.131.02 2.275.01 3.406 0 .234 0 .362.04.362.27-.012 1.26-.012 2.52-.012 3.78 0 .05-.023.09-.035.18h-.536c-1.389.02-2.789-.03-4.165.07a3.218 3.218 0 00-2.975 2.72c-.035.26-.035.53-.035.79v8.7h-4.679V29.71zM87.162 46.24h-4.69V29.71h4.69v16.53zm133.151-16.55h4.69v16.53h-4.69V29.69zm-52.815-17.77c.082-.15.129-.29.21-.4.094-.13.292-.25.385-.05.245.57.91.51 1.377.69.653.25.933.71.572 1.25a.525.525 0 01-.094.12c-.618.46-.583 1.02-.513 1.67.07.62-.035 1.27-.163 1.88-.152.7.081 1.17.84 1.44.221.08.443.15.665.22.91.24 1.283.84 1.446 1.58.07.3-.163.58-.478.63-.35.06-.63-.1-.653-.37-.059-.7-.712-.74-1.26-.9-.502-.14-1.027-.23-1.54-.36-.245-.06-.362-.02-.455.18-.222.47-.234.93.023 1.4.303.56.618 1.13.945 1.68.047.08.222.13.338.13 1.307.03 2.614.07 3.92.04.409-.01.817-.19 1.272-.26-.222.11-.432.26-.665.33-.653.21-1.342.11-2.018.09-1.05-.04-2.1-.01-3.15-.02-.129 0-.257.01-.374.01h-8.761c-.735 0-1.459-.12-2.1-.44-1.144-.57-1.505-1.49-1.505-2.53 0-.65.198-1.28.618-1.85.163-.23.35-.36.642-.26.315.1.256.35.186.56-.14.41-.338.82-.431 1.24-.222 1.06.653 2.18 2.076 2.26.572.03 1.144.03 1.704-.01.408-.03.606-.27.583-.66-.023-.48-.023-.96.047-1.44.186-1.33.91-2.41 2.146-3.26.805-.56 1.692-.98 2.637-1.31.362-.12.455-.3.478-.62.059-.77.047-1.53-.151-2.29-.059-.23.105-.51.163-.77.257.1.502.2.758.3.082.01.164.05.28.1zm-.641 10.17c-.222-.68-.42-1.33-.665-2.07-.117.19-.21.29-.234.4-.081.38-.14.77-.198 1.16-.012.08-.012.21.023.22.35.12.63.45 1.074.29zm-78.867 3.1c-.023 1.53-1.283 2.74-3.103 2.78-1.75.04-3.197-1.17-3.22-2.72-.024-1.44 1.306-2.82 3.091-2.86 1.785-.03 3.244 1.33 3.232 2.8z" fill="#000"/><path d="M225.832 25.18c-.012 1.52-1.272 2.74-3.092 2.79-1.75.05-3.197-1.15-3.232-2.71-.035-1.43 1.295-2.82 3.08-2.86 1.785-.05 3.255 1.31 3.244 2.78zM185.115 3.52c-.082.08-.163.17-.268.24-1.004.72-1.995 1.45-2.999 2.16-.816.59-1.656 1.16-2.473 1.74-.21.15-.408.31-.618.46-.257.18-.467.09-.537-.15-.093-.29-.117-.55.268-.77 1.517-.86 3.022-1.75 4.527-2.64.513-.3 1.027-.61 1.54-.9.152-.09.327-.15.49-.23.023.04.047.07.07.09zm-9.613 16.67c.023-.26.081-.51.081-.77a3.935 3.935 0 00-.548-1.96c-.432-.74-.887-1.48-1.33-2.22-.327-.54-.327-1.11-.245-1.68.117-.79.443-1.52 1.062-2.13.058-.06.14-.1.245-.18-.28.46-.607.85-.782 1.28-.42 1.02-.502 2.01.198 3.03.7 1 1.342 2.07 1.529 3.26.07.44-.047.91-.082 1.36-.035.02-.082.02-.128.01zm-.129-9.94c.164-.3.28-.59.479-.83.28-.35.583-.69.921-1.01.094-.08.35-.11.479-.06.326.13.42.78.046.96-.618.3-1.236.61-1.925.94z" fill="#000"/></svg>