<svg width="26" height="26" fill="none" xmlns="http://www.w3.org/2000/svg"><path d="M24.25 18H6.75a1.25 1.25 0 010-2.5H19.8a3.75 3.75 0 003.637-2.838L25.5 4.55a1.25 1.25 0 00-.225-1.075A1.25 1.25 0 0024.25 3H6.45A3.75 3.75 0 002.925.5H1.75a1.25 1.25 0 000 2.5h1.175a1.25 1.25 0 011.25.95l.075.6L6.412 13a3.754 3.754 0 00.338 7.5h.225a3.75 3.75 0 107.05 0h2.95a3.75 3.75 0 107.05 0h.225a1.25 1.25 0 000-2.5zm-1.6-12.5l-1.637 6.55a1.25 1.25 0 01-1.25.95H8.974L7.1 5.5h15.55zM10.5 23a1.25 1.25 0 110-2.5 1.25 1.25 0 010 2.5zm10 0a1.25 1.25 0 110-2.5 1.25 1.25 0 010 2.5z" fill="#fff"/></svg>