<svg width="50" height="50" viewBox="0 0 50 50" fill="none" xmlns="http://www.w3.org/2000/svg">
<g clip-path="url(#clip0_20_85)">
<path d="M44.4444 50H5.55556C2.4875 50 0 47.5125 0 44.4444V5.55556C0 2.4875 2.4875 0 5.55556 0H44.4444C47.5125 0 50 2.4875 50 5.55556V44.4444C50 47.5125 47.5125 50 44.4444 50Z" fill="black"/>
<path d="M38.4167 18.7708C37.75 20.4375 36.7188 22.1458 35.1771 23.7396C35.1563 23.7604 35.1354 23.7917 35.1146 23.8125C33.5313 25.4271 31.4271 26.9271 28.6459 28.125C28.3646 28.25 28.0938 28.3542 27.8229 28.4688C26.8438 28.8646 25.9271 29.1979 25.0521 29.4792C17.7188 31.8542 13.7292 31.0104 10.5938 39.125C10.5313 39.2708 10.4792 39.4271 10.4167 39.5833C10.4167 39.3854 10.4167 39.1875 10.4271 38.9896C10.5 34.5208 11.6459 25.1146 25.5209 21.875C26.7396 21.5833 27.8542 21.2604 28.8646 20.9063C38.0104 17.7083 39.0625 12.0313 39.0625 10.1562C39.6042 11.7604 39.8646 15.1667 38.4167 18.7708Z" fill="#40C4FF"/>
<path d="M35.1771 23.7397C35.1563 23.7606 35.1354 23.7918 35.1146 23.8127C33.5313 25.4272 31.4271 26.9272 28.6459 28.1252C28.3646 28.2502 28.0938 28.3543 27.8229 28.4689C26.8438 28.8647 25.9271 29.1981 25.0521 29.4793C17.7188 31.8543 13.7292 31.0106 10.5938 39.1252C10.5313 39.271 10.4792 39.4272 10.4167 39.5835C10.4375 39.4168 10.4584 39.2397 10.4896 39.0418C10.5313 38.7606 10.5834 38.4481 10.6563 38.1147C10.6563 38.1043 10.6563 38.0835 10.6667 38.0627C11.2604 35.0314 12.8959 30.3127 17.7084 28.1252C20.625 26.8022 29.1563 24.6252 35.1771 23.7397Z" fill="#FF4081"/>
<path d="M25.0521 29.4793C17.7188 31.8543 13.5521 31.4689 10.4167 39.5835L10.4896 39.0418L10.4271 38.9897C10.5 38.7189 10.5729 38.4272 10.6563 38.1147C10.6563 38.1043 10.6563 38.0835 10.6667 38.0627C11.5521 34.9064 13.5209 30.1148 20.8334 29.1668C22.3438 28.9689 23.7604 29.1147 25.0521 29.4793Z" fill="#FFB74D"/>
<path d="M38.4167 18.7708C35.9583 20.6458 29.9062 23.9375 18.75 26.0417C20.6042 24.8854 25.1354 23.7292 28.8646 20.9063C38.0104 17.7083 39.0625 12.0313 39.0625 10.1562C39.6042 11.7604 39.8646 15.1667 38.4167 18.7708Z" fill="#7C4DFF"/>
<path d="M35.1146 23.8125C33.4375 24.8333 30.9479 25.9792 26.6771 26.7917C26.1459 26.8958 25.5834 26.9896 25 27.0833C20.8125 27.7292 17.0209 28.9688 14.25 31.9167C13.8542 32.3333 13.4896 32.7917 13.1354 33.2813C11.9584 34.9167 11.0313 36.9792 10.4167 39.5833C10.4167 39.3854 10.4167 39.1875 10.4271 38.9896C10.5729 34.6458 12.4167 29.6563 18.0521 26.2188C19.6875 25.2188 21.6354 24.3542 23.9584 23.6771C24.9375 23.3854 25.9688 23.1354 27.0834 22.9167C32.2188 21.9063 35.1771 20.0104 36.8646 17.9583C39.5521 14.7188 39.0625 11.1146 39.0625 10.1562C39.8542 12.5208 40.0417 18.7708 35.1146 23.8125Z" fill="#E040FB"/>
<path d="M28.7136 22.5439C28.1948 22.6783 27.6563 22.8044 27.0834 22.9169C25.9688 23.1356 24.9375 23.3856 23.9584 23.6773C21.6354 24.3544 19.6875 25.2189 18.0521 26.2189C14.9375 28.9898 13.5417 31.7189 13.1354 33.2814C13.4896 32.7919 13.8542 32.3335 14.25 31.9169C16.5771 29.4419 19.6281 28.1783 23.024 27.4523C24.7844 26.396 27.1656 24.7606 28.7136 22.5439Z" fill="#FF80AB"/>
<path d="M23.9584 23.6772V23.6981C22.1875 24.4585 16.4896 27.6668 14.25 31.9168C12.5417 33.7397 11.2084 36.2085 10.4167 39.5835C10.4167 39.3856 10.4167 39.1877 10.4271 38.9897C10.6146 33.3856 13.625 26.7085 23.9584 23.6772Z" fill="#FFE0B2"/>
</g>
<defs>
<clipPath id="clip0_20_85">
<rect width="50" height="50" fill="white"/>
</clipPath>
</defs>
</svg>
