<svg width="300" height="187" fill="none" xmlns="http://www.w3.org/2000/svg"><path fill-rule="evenodd" clip-rule="evenodd" d="M.477 1.266C.317 1.12.16.978 0 .839.242.652.484.373.725 0c.65.287 1.318.546 1.983.803h.001c1.065.414 2.124.824 3.09 1.34 3.544 1.802 7.089 3.687 10.633 5.572 1.772.942 3.543 1.884 5.315 2.816l.015.008c15.58 8.291 31.16 16.583 46.86 24.595 3.988 2.05 3.746 4.473 2.78 7.176-.725 2.236-2.9 3.075-5.558 1.398a137.057 137.057 0 01-3.202-2.144 138.163 138.163 0 00-3.201-2.143c-3.552-2.27-7.147-4.524-10.749-6.783-4.973-3.118-9.96-6.244-14.864-9.433-6.301-4.013-12.558-8.094-18.824-12.182h-.001l-.002-.002-.006-.003v-.001c-4.064-2.65-8.13-5.303-12.216-7.941-.883-.53-1.607-1.183-2.3-1.81H.476zm179.255 77.736c.254.513.519 1.05.837 1.602.176-.071.345-.14.506-.207.928-.382 1.636-.673 2.344-.755 1.305-.481 2.581-.962 3.857-1.443 1.277-.481 2.553-.962 3.859-1.444.193.812.497 1.643.801 2.472.633 1.726 1.262 3.441.861 4.937-2.018 7.311-2.137 14.623-1.543 22.031.237 3.079 1.187 4.811 4.867 5.965 9.616 3.175 18.639 7.216 26.831 12.603 12.584 8.178 19.944 18.568 21.844 31.364.712 4.618.712 9.236.475 13.854-.238 3.752 1.781 6.061 5.936 6.35 5.698.384 11.515.385 17.333.096 14.483-.77 23.387-11.545 21.132-21.743-.619-2.632-1.691-5.222-2.756-7.798v-.001c-.571-1.379-1.14-2.755-1.637-4.131-.712-2.02-1.306-4.425 1.9-5.387 2.968-.963 4.867.288 6.529 2.501 4.274 5.484 6.292 11.545 6.292 17.798 0 10.006-3.68 18.857-15.314 24.341-6.53 3.079-13.891 4.233-21.37 4.233h-89.158c-.579 0-1.187-.023-1.809-.046h-.001c-.652-.025-1.32-.05-1.989-.05-3.885.035-7.771.019-11.657.003-6.799-.028-13.598-.056-20.397.189-1.41.04-2.826.111-4.242.183-5.498.279-11.01.558-16.296-1.049-1.583-.448-3.06-1.24-4.537-2.031-.739-.395-1.478-.791-2.23-1.144 1.938.282 3.793.75 5.6 1.205h.001c2.508.632 4.924 1.241 7.339 1.297 11.634.252 23.267-.011 34.9-.274 1.663-.037 3.326-.075 4.99-.111 1.187 0 2.968-.481 3.443-1.251 3.324-5.291 6.529-10.775 9.616-16.163 2.612-4.521 2.493-8.947.237-13.469-.949-1.924-2.137-2.309-4.63-1.731-2.274.544-4.571 1.016-6.861 1.486l-.005.001h-.001c-2.968.609-5.924 1.216-8.804 1.976-.854.236-1.734.444-2.613.653-4.861 1.153-9.705 2.303-10.208 8.006-.238 2.597-3.087 4.137-6.648 3.56-3.206-.481-5.58-3.175-4.868-6.061 1.662-7.12 5.461-12.892 14.721-15.201l.002-.001c2.255-.673 4.51-1.347 6.765-2.116 7.717-2.598 10.091-7.119 8.548-13.854-1.306-5.869-2.375-12.122-1.662-18.087.712-6.253 1.068-11.641-5.224-16.067-.356-.288-.712-.77-.95-1.154-3.68-5.195-.831-9.62 5.818-12.026 1.338-.488 2.836-.793 4.354-1.101 3.869-.787 7.864-1.6 9.655-5.537.949-1.925 2.967-.77 3.917.48.513.654.891 1.418 1.3 2.247zm10.219 91.021c-.945 2.816-1.876 5.593-2.852 8.424 3.158 1.078 5.501-.155 7.844-1.387 1.005-.528 2.009-1.057 3.078-1.403.356-.096.356-1.347.237-2.116-.593-3.753-1.187-7.504-2.018-11.16-.159-.709-.638-1.375-1.293-2.287-.324-.449-.69-.958-1.082-1.562-1.414 4.039-2.675 7.799-3.914 11.491zm-91.928-13.952c-.235-1.482-.468-2.956-.468-4.466.121-6.448 1.932-12.523 5.675-18.317 2.979-4.612 6.066-9.224 9.152-13.836 1.542-2.304 3.084-4.608 4.613-6.912 3.38-5.047 3.381-10.374 2.536-15.7-1.208-7.384-4.589-14.206-10.988-19.907-.358-.332-.801-.599-1.328-.917-.363-.218-.765-.46-1.208-.765 1 1.483 2.057 2.888 3.088 4.258 1.956 2.6 3.816 5.072 5.002 7.704 4.347 9.533 5.192 18.785-2.052 28.318-7.245 9.346-13.886 19.346-15.818 30.467-.505 2.871-.07 5.878.362 8.863.188 1.29.374 2.577.483 3.847.362.187.846.187 1.329.094a47.386 47.386 0 00-.378-2.731zm-.274-94.13c.4.708.808 1.431 1.251 2.162-3.94-1.694-7.643-3.327-11.25-4.917-2.5-1.102-4.953-2.184-7.407-3.252-3.618-1.564-2.714-7.212.453-8.341 1.243-.435 3.73-.174 4.635.52 3.28 2.782 6.22 5.736 8.933 8.777 1.384 1.502 2.358 3.228 3.385 5.05z" fill="#000"/></svg>