<svg width="50" height="50" fill="none" xmlns="http://www.w3.org/2000/svg"><path d="M25 4.167a20.833 20.833 0 100 41.666 20.833 20.833 0 000-41.666zm0 4.166a16.542 16.542 0 0111.48 4.625A51.937 51.937 0 0126.416 17.5a60.561 60.561 0 00-5.98-8.521A16.542 16.542 0 0125 8.333zm-8.563 2.396a56.585 56.585 0 015.855 8.02 52.31 52.31 0 01-12.5 1.543h-.75a16.662 16.662 0 017.396-9.563zM12.5 36.062A16.458 16.458 0 018.333 25v-.604H9.75a55.56 55.56 0 0014.583-2.084 68.905 68.905 0 011.896 3.938 29.791 29.791 0 00-8.937 5.02l-.625.5a43.753 43.753 0 00-4.167 4.292zM25 41.667a16.5 16.5 0 01-9.313-2.855 37.352 37.352 0 013.25-3.291l.667-.563a26.311 26.311 0 018.334-4.729 66.67 66.67 0 012.916 10.417A16.834 16.834 0 0125 41.666zm9.646-3.105a72.644 72.644 0 00-2.667-9.291h.709a.52.52 0 01.25 0h1.437c2.192.006 4.368.38 6.438 1.104a16.541 16.541 0 01-6.167 8.187zM34.375 25h-1.292a3.249 3.249 0 00-.812 0c-.566.035-1.13.104-1.688.208h-.208a104.68 104.68 0 00-1.917-4.166 55.348 55.348 0 0010.688-5A16.667 16.667 0 0141.666 25v1.062A23.918 23.918 0 0034.376 25z" fill="#000"/></svg>